<?xml version="1.0" encoding="UTF-8"?>
<svg width="20px" height="20px" viewBox="0 0 20 20" version="1.1" xmlns="http://www.w3.org/2000/svg" xmlns:xlink="http://www.w3.org/1999/xlink">
    <!-- Generator: Sketch 62 (91390) - https://sketch.com -->
    <title>icon/16px/ac</title>
    <desc>Created with Sketch.</desc>
    <g id="icon/16px/ac" stroke="none" stroke-width="1" fill="none" fill-rule="evenodd">
        <g id="air-conditioner-(1)" transform="translate(0.000000, 4.000000)" fill="#727479">
            <path d="M7.31399535,9.64614867 L8.0366516,10.8978271 C8.19854734,11.1779785 8.10256957,11.5364075 7.82226562,11.6981506 C7.72994996,11.7514038 7.62924195,11.7767334 7.52990723,11.7767334 C7.32727051,11.7767334 7.13043211,11.6716004 7.02194215,11.4837646 L6.2992859,10.2320862 C6.13739016,9.95178223 6.23336793,9.59335328 6.51367187,9.43161012 C6.79397582,9.26986695 7.15225219,9.36584473 7.31399535,9.64614867 Z M10.1460266,9.64614867 L10.8686829,10.8978271 C11.0305786,11.1779785 10.9346008,11.5364075 10.6542969,11.6981506 C10.5619812,11.7514038 10.4612732,11.7767334 10.3619385,11.7767334 C10.1593018,11.7767334 9.96246336,11.6716004 9.8539734,11.4837646 L9.13131715,10.2320862 C8.96942141,9.95178223 9.06539918,9.59335328 9.34570312,9.43161012 C9.62600707,9.26986695 9.98428344,9.36584473 10.1460266,9.64614867 Z M12.9780579,9.64614867 L13.7007141,10.8978271 C13.8626098,11.1779785 13.7666321,11.5364075 13.4863281,11.6981506 C13.3940125,11.7514038 13.2933045,11.7767334 13.1939697,11.7767334 C12.991333,11.7767334 12.7944946,11.6716004 12.6860046,11.4837646 L11.9633484,10.2320862 C11.8014527,9.95178223 11.8974304,9.59335328 12.1777344,9.43161012 C12.4580383,9.26986695 12.8163147,9.36584473 12.9780579,9.64614867 Z M15.9777832,7.13836672 L16.1672973,8.41751098 L3.83270266,8.41751098 L4.0222168,7.13836672 L15.9777832,7.13836672 Z M18.3149719,-2.98427949e-13 C19.2440796,-2.98427949e-13 20,0.755920391 20,1.68487547 L20,1.68487547 L20,6.73248289 C20,7.66159059 19.2440796,8.41751098 18.3151245,8.41751098 L18.3151245,8.41751098 L17.3519898,8.41751098 L17.3394775,8.33374023 L17.3066711,8.11157227 L17.2012329,7.4002075 L17.0629883,6.46652223 C17.0204162,6.17919922 16.7738342,5.96649172 16.4834595,5.96649172 L16.4834595,5.96649172 L3.51669312,5.96649172 C3.22616578,5.96649172 2.97958375,6.1793518 2.93701172,6.46652223 L2.93701172,6.46652223 L2.79876711,7.4002075 L2.69348145,8.11157227 L2.66052246,8.33374023 L2.64816285,8.41751098 L1.68502809,8.41751098 C0.755920391,8.41751098 -1.11022302e-15,7.66159059 -1.11022302e-15,6.73248289 L-1.11022302e-15,6.73248289 L-1.11022302e-15,1.68487547 C-1.11022302e-15,0.755920391 0.755920391,-2.98427949e-13 1.68502809,-2.98427949e-13 L1.68502809,-2.98427949e-13 Z M16.0824585,3.73809812 C15.7347107,3.73809812 15.4516602,4.02114867 15.4516602,4.36889648 C15.4516602,4.7166443 15.7347107,4.99969484 16.0824585,4.99969484 C16.4302063,4.99969484 16.7132568,4.7166443 16.7132568,4.36889648 C16.7132568,4.02114867 16.4302063,3.73809812 16.0824585,3.73809812 Z M16.0824585,2.09747312 C15.7347107,2.09747312 15.4516602,2.38052367 15.4516602,2.72827148 C15.4516602,3.0760193 15.7347107,3.35906984 16.0824585,3.35906984 C16.4302063,3.35906984 16.7132568,3.0760193 16.7132568,2.72827148 C16.7132568,2.38052367 16.4302063,2.09747312 16.0824585,2.09747312 Z" id="Combined-Shape"></path>
        </g>
    </g>
</svg>