<?xml version="1.0" encoding="UTF-8"?>
<svg width="85px" height="85px" viewBox="0 0 85 85" version="1.1" xmlns="http://www.w3.org/2000/svg" xmlns:xlink="http://www.w3.org/1999/xlink">
    <!-- Generator: Sketch 61.2 (89653) - https://sketch.com -->
    <title>icon/85px/accept-bid</title>
    <desc>Created with Sketch.</desc>
    <g id="Demand-Response_DSO" stroke="none" stroke-width="1" fill="none" fill-rule="evenodd">
        <g id="34" transform="translate(-425.000000, -242.000000)">
            <g id="Popup" transform="translate(365.000000, 182.000000)">
                <g id="icon/85px/accept-bid" transform="translate(60.000000, 60.000000)">
                    <g id="Icon">
                        <circle id="Oval" stroke="#DFE2E5" fill="#F7F7F7" cx="42.5" cy="42.5" r="42"></circle>
                        <path d="M42,25 C51.3888407,25 59,32.6111593 59,42 C59,51.3888407 51.3888407,59 42,59 C32.6111593,59 25,51.3888407 25,42 C25,32.6111593 32.6111593,25 42,25 Z M48.7180568,37.304017 C48.3336757,36.9074448 47.7005879,36.897562 47.3040157,37.2819432 L47.3040157,37.2819432 L39.7453336,44.6066668 L36.6959843,41.6508352 L36.5823288,41.5557735 C36.1863607,41.2714467 35.6313806,41.3123889 35.2819432,41.6729091 C34.897562,42.0694813 34.9074448,42.7025691 35.304017,43.0869502 L35.304017,43.0869502 L39.0502885,46.7180576 L39.1730383,46.8195568 C39.5591052,47.0902216 40.0931944,47.0563885 40.4422558,46.7180576 L40.4422558,46.7180576 L48.695983,38.7180582 L48.794546,38.6074252 C49.0910937,38.2205248 49.0674942,37.6645372 48.7180568,37.304017 Z" id="Combined-Shape" fill="#417505"></path>
                    </g>
                </g>
            </g>
        </g>
    </g>
</svg>