<?xml version="1.0" encoding="UTF-8"?>
<svg width="20px" height="20px" viewBox="0 0 20 20" version="1.1" xmlns="http://www.w3.org/2000/svg" xmlns:xlink="http://www.w3.org/1999/xlink">
    <!-- Generator: Sketch 62 (91390) - https://sketch.com -->
    <title>icon/16px/Boilers</title>
    <desc>Created with Sketch.</desc>
    <g id="icon/16px/Boilers" stroke="none" stroke-width="1" fill="none" fill-rule="evenodd">
        <path d="M10.504425,0 C10.6663208,0 10.7973938,0.131225586 10.7973938,0.29296875 L10.7973938,0.29296875 L10.7973938,2.15377809 L11.0529785,2.15377809 C11.6967468,2.15377809 12.2204285,2.6776123 12.2204285,3.32138062 L12.2204285,3.32138062 L12.2204285,3.95767211 L14.9601441,3.95767211 C15.8990173,3.95767211 16.6627197,4.72137453 16.6627197,5.66024781 L16.6627197,5.66024781 L16.6627197,18.2974243 C16.6627197,19.236145 15.8990173,20 14.9601441,20 L14.9601441,20 L4.7025757,20 C3.76370238,20 3,19.236145 3,18.2974243 L3,18.2974243 L3,5.66024781 C3,4.72137453 3.763855,3.95767211 4.7025757,3.95767211 L4.7025757,3.95767211 L7.44229125,3.95767211 L7.44229125,3.32138062 C7.44229125,2.6776123 7.96612547,2.15377809 8.60989379,2.15377809 L8.60989379,2.15377809 L8.86532594,2.15377809 L8.86532594,0.29296875 C8.86532594,0.131225586 8.99655152,0 9.15829469,0 L9.15829469,0 Z M10.4677894,6.99676147 L10.2193411,7.05273199 C8.7402436,7.38592746 7.74355722,8.43630914 7.33697877,10.0902901 C7.16607605,10.7855551 7.13388769,11.4442547 7.13867902,11.8897762 C6.78920024,11.6072319 6.614677,11.3593257 6.61010183,11.3527691 L6.42166205,11.0759163 C6.38524509,11.0224131 6.31235037,11.0085619 6.25884713,11.0449789 C6.23553149,11.0608487 6.21872147,11.0845949 6.21150228,11.1118594 L6.12558324,11.4363472 C6.04223934,11.7510979 6,12.0767101 6,12.4041415 C6,14.4686097 7.66705807,16.1507262 9.72569017,16.1757816 L9.74892856,16.1762274 L9.74892856,16.1762274 L9.7722345,16.176376 C9.78779731,16.176376 9.80330608,16.1761779 9.81877883,16.1757816 C11.8774289,16.1507262 13.544469,14.4686097 13.544469,12.4041415 C13.544469,12.3350635 13.5424156,12.2632476 13.5383447,12.1907293 L13.5152569,11.778945 C13.5116338,11.7143256 13.4563124,11.6648783 13.391693,11.6685014 C13.3576531,11.6704099 13.3261319,11.687048 13.305351,11.7140761 L13.0539703,12.0410273 C13.0186477,12.0869592 12.9434455,12.1682136 12.8474388,12.2422631 C12.8853731,12.1165717 12.9192367,11.9732282 12.9416262,11.8151143 C13.019116,11.26757 12.9708605,10.4271962 12.3011733,9.53305502 L12.1419503,9.32047193 C12.1031512,9.26867017 12.0297047,9.25812943 11.977903,9.29692851 C11.9614176,9.30927594 11.9484777,9.3257502 11.940387,9.3446914 L11.8360542,9.58894785 C11.6236687,10.0861653 11.2800259,10.3356206 10.9606461,10.2244293 C10.7147753,10.1388699 10.5149264,9.8574784 10.4123992,9.45235897 C10.3167708,9.07449247 10.2611842,8.40956055 10.5396576,7.38760262 L10.6066093,7.14189211 C10.6236242,7.07944787 10.5867964,7.01503349 10.5243522,6.99801857 C10.5058836,6.9929862 10.4864633,6.99255459 10.4677894,6.99676147 Z M9.53153329,12.3668916 C9.47434356,12.6760224 9.52504878,12.9689419 9.62031697,13.1870374 C9.76230961,13.5120732 10.0156736,13.7249811 10.2980918,13.756539 C10.4090309,13.7688956 10.5947219,13.7593309 10.7893651,13.6176985 C10.949082,13.8338667 11.0375955,14.0975699 11.0375955,14.3701893 C11.0375955,15.067922 10.4699492,15.6355323 9.77225251,15.6355323 C9.07451981,15.6355323 8.50689149,15.067904 8.50689149,14.3701893 C8.50689149,13.1525794 9.08269749,12.6071245 9.53153329,12.3668916 Z M9.90831904,7.70561354 C9.76364253,8.42002582 9.75600523,9.06296446 9.88816303,9.58507516 C10.0361178,10.1696172 10.3622704,10.5888405 10.7829887,10.7352101 C11.0754578,10.8369628 11.3906408,10.7991365 11.6706093,10.6287202 C11.8317672,10.530624 11.9775605,10.391009 12.1028916,10.2162156 C12.3736376,10.6996895 12.4766512,11.2025808 12.4093745,11.7158654 C12.3457363,12.2013927 12.1459054,12.518593 12.1445545,12.5207185 L11.9132198,12.875619 L12.3325331,12.936033 C12.5436397,12.9664381 12.7640949,12.9200199 12.9794165,12.8011733 C12.8522481,13.8340108 12.2357338,14.7174525 11.3697823,15.2120761 C11.5028767,14.9605314 11.5784212,14.6740244 11.5784212,14.3701893 C11.5784212,13.8581476 11.3597673,13.3681532 10.9785505,13.0258794 L10.7567804,12.8267871 L10.5801137,13.0668039 C10.5351365,13.1279203 10.4464068,13.2291146 10.3581996,13.2190816 C10.288239,13.2112642 10.1861981,13.1313787 10.1159493,12.970545 C10.0188078,12.7482165 9.9991021,12.3967204 10.234994,12.0770703 L10.447113,11.7896144 C10.4855417,11.7375373 10.4744774,11.6641678 10.4224003,11.6257391 C10.3982081,11.6078872 10.3680799,11.6000166 10.3382474,11.6037551 L9.98379146,11.6481744 C9.96269881,11.6508222 9.46150064,11.7171983 8.96451739,12.0907238 C8.13934616,12.7108946 7.96611983,13.6726007 7.96611983,14.3701893 C7.96611983,14.6740964 8.04168232,14.9606575 8.17484883,15.2122382 C7.1996874,14.6553094 6.54089775,13.6052519 6.54089775,12.4041235 C6.54089775,12.3016683 6.5457251,12.1994473 6.55530776,12.0978387 C6.73768446,12.2706328 6.98492421,12.4718866 7.29969287,12.6586403 L7.63384726,12.8567607 C7.67096145,12.8787657 7.71888705,12.8665173 7.74089208,12.8294031 C7.74962061,12.8146814 7.75327335,12.7975007 7.75128899,12.7805013 L7.70623529,12.3945408 C7.70501044,12.3840035 7.58656015,11.3285603 7.86562802,10.2056603 C8.18471968,8.92156623 8.87088835,8.08259742 9.90831904,7.70561354 Z M11.0529785,2.73971559 L8.60989379,2.73971559 C8.28915406,2.73971559 8.02822875,3.00064086 8.02822875,3.32138062 L8.02822875,3.32138062 L8.02822875,3.95767211 L11.634491,3.95767211 L11.634491,3.32138062 C11.634491,3.00064086 11.3737183,2.73971559 11.0529785,2.73971559 L11.0529785,2.73971559 Z M10.2114563,0.5859375 L9.45126344,0.5859375 L9.45126344,2.15377809 L10.2114563,2.15377809 L10.2114563,0.5859375 Z" id="Combined-Shape" fill="#727479"></path>
    </g>
</svg>