<?xml version="1.0" encoding="UTF-8"?>
<svg width="71px" height="24px" viewBox="0 0 71 24" version="1.1" xmlns="http://www.w3.org/2000/svg" xmlns:xlink="http://www.w3.org/1999/xlink">
    <title>bses-logo-small</title>
    <g id="Symbols" stroke="none" stroke-width="1" fill="none" fill-rule="evenodd">
        <g id="bses-logo-small">
            <g id="BRPL-2" fill="#FFFFFF">
                <g id="BRPL-Copy">
                    <g id="Utility-Company-Icon-Copy">
                        <rect id="Rectangle" x="0" y="0" width="70.5395176" height="24" rx="1.37142857"></rect>
                    </g>
                </g>
            </g>
            <g id="Group" transform="translate(2.400000, 2.400000)">
                <path d="M11.4892798,0.109117634 C12.6009663,0.109117634 13.4710607,0.657769946 14.1491894,1.21616125 C14.8273182,1.77455255 16.5349132,4.38331048 14.6019428,6.74713025 C16.4344312,8.76563192 15.4748276,11.1447002 15.0419684,11.6934572 C13.99837,13.0164785 12.4623988,13.3851429 11.9228376,13.3851429 L11.9228376,13.3851429 L0,13.3559984 L0,0.109117634 Z M32.3682458,0.0436470535 L32.3682458,3.08849668 L20.9175908,3.08849668 C20.5642466,3.13301063 20.2957753,3.25387223 20.1121769,3.45108146 C19.8367793,3.74689532 19.8733842,4.044186 19.8733842,4.21011427 C19.8733842,4.3106199 19.9529817,4.50395147 20.1121769,4.790109 C20.5646808,5.04336532 20.8331521,5.16999348 20.9175908,5.16999348 L20.9175908,5.16999348 L28.3073897,5.16999348 C29.5739696,5.16999348 30.2594394,5.65348852 30.9687241,6.26335217 C31.6780089,6.87321582 32.236736,8.13015515 32.236736,9.21156286 C32.236736,10.2929706 31.8123734,11.638736 31.1030886,12.2423124 C30.3938039,12.8458887 29.5739696,13.3559984 28.3073897,13.3559984 L28.3073897,13.3559984 L16.9070117,13.3559984 L16.9070117,10.2020311 L28.5035165,10.2020311 C28.6301745,10.2020311 29.2047809,9.9231576 29.2047809,9.21156286 C29.2047809,8.49996812 28.6301745,8.3199078 28.5035165,8.3199078 L28.5035165,8.3199078 L20.7845999,8.21079017 C19.4851956,8.03936686 18.7026284,7.44293373 17.9996765,6.83935733 C17.2967247,6.23578093 15.9653705,3.53236999 17.7175915,1.52512351 C19.3273512,0.111512799 20.6041122,0.109117634 20.7845999,0.0436470535 L20.7845999,0.0436470535 L32.3682458,0.0436470535 Z M65.4994286,0.0436470535 L65.4994286,3.08849668 L54.0487736,3.08849668 C53.6954294,3.13301063 53.4269581,3.25387223 53.2433597,3.45108146 C52.9679621,3.74689532 53.0045669,4.044186 53.0045669,4.21011427 C53.0045669,4.3106199 53.0841645,4.50395147 53.2433597,4.790109 C53.6958636,5.04336532 53.9643349,5.16999348 54.0487736,5.16999348 L54.0487736,5.16999348 L61.4385725,5.16999348 C62.7051524,5.16999348 63.3906221,5.65348852 64.0999069,6.26335217 C64.8091917,6.87321582 65.3679188,8.13015515 65.3679188,9.21156286 C65.3679188,10.2929706 64.9435562,11.638736 64.2342714,12.2423124 C63.5249867,12.8458887 62.7051524,13.3559984 61.4385725,13.3559984 L61.4385725,13.3559984 L50.0381945,13.3559984 L50.0381945,10.2020311 L61.6346993,10.2020311 C61.7613573,10.2020311 62.3359637,9.9231576 62.3359637,9.21156286 C62.3359637,8.49996812 61.7613573,8.3199078 61.6346993,8.3199078 L61.6346993,8.3199078 L53.9157827,8.21079017 C52.6163784,8.03936686 51.8338112,7.44293373 51.1308593,6.83935733 C50.4279074,6.23578093 49.0965532,3.53236999 50.8487743,1.52512351 C52.458534,0.111512799 53.735295,0.109117634 53.9157827,0.0436470535 L53.9157827,0.0436470535 L65.4994286,0.0436470535 Z M49.0315176,3.19744231e-15 L49.0315176,2.97847493 L36.509247,2.97847493 L36.509247,5.06654997 L47.2051337,5.06654997 L47.2051337,8.16374488 L36.509247,8.16374488 L36.509247,10.1592882 L48.9551623,10.1592882 L48.9551623,13.2468807 L33.3505946,13.2468807 L33.3505946,3.19744231e-15 L49.0315176,3.19744231e-15 Z M11.4892798,8.40118485 L3.04894646,8.40118485 L3.04894646,10.3775234 L11.4892798,10.3775234 C11.7894352,10.3775234 12.0228893,10.3111799 12.1896423,10.1784929 C12.3563953,10.0458058 12.4397718,9.64512587 12.4397718,9.41292355 L12.4397718,9.41292355 L12.4397718,9.13096358 C12.4397718,8.64444443 12.1229411,8.40118485 11.4892798,8.40118485 L11.4892798,8.40118485 Z M11.3298812,3.1967102 L3.04894646,3.1967102 L3.04894646,5.21393068 L11.3298812,5.21393068 C11.9445972,5.21393068 12.4713671,4.93705728 12.4713671,4.38331048 L12.4713671,4.38331048 L12.4713671,4.00755372 C12.4713671,3.46699137 11.9445972,3.1967102 11.3298812,3.1967102 L11.3298812,3.1967102 Z" id="Combined-Shape" fill="#D62C29" fill-rule="nonzero"></path>
                <text id="BSES-Rajdhani-Power" font-family="Arial-BoldMT, Arial" font-size="4.71771429" font-weight="bold" letter-spacing="-0.153600001" fill="#000000">
                    <tspan x="0" y="17.824">BSES </tspan>
                    <tspan x="13.38975" y="17.824" letter-spacing="-0.0987428546">Rajdhani</tspan>
                    <tspan x="32.5210929" y="17.824"> Power  </tspan>
                    <tspan x="49.3822393" y="17.824" letter-spacing="-0.0658285737">Limited</tspan>
                </text>
            </g>
        </g>
    </g>
</svg>