<?xml version="1.0" encoding="UTF-8"?>
<svg width="80px" height="27px" viewBox="0 0 80 27" version="1.1" xmlns="http://www.w3.org/2000/svg" xmlns:xlink="http://www.w3.org/1999/xlink">
    <title>bses-logo-large</title>
    <g id="Symbols" stroke="none" stroke-width="1" fill="none" fill-rule="evenodd">
        <g id="bses-logo-large">
            <g id="BRPL-2" fill="#FFFFFF">
                <g id="BRPL-Copy-2">
                    <g id="Utility-Company-Icon-Copy-2">
                        <rect id="Rectangle" x="0" y="0" width="79.3569573" height="27" rx="1.54285714"></rect>
                    </g>
                </g>
            </g>
            <g id="Group" transform="translate(2.700000, 2.700000)">
                <path d="M12.9254398,0.122757338 C14.1760871,0.122757338 15.1549433,0.739991189 15.9178381,1.36818141 C16.680733,1.99637162 18.6017774,4.93122429 16.4271856,7.59052153 C18.4887351,9.86133591 17.4091811,12.5377878 16.9222145,13.1551394 C15.7481662,14.6435383 14.0201986,15.0582857 13.4131923,15.0582857 L13.4131923,15.0582857 L0,15.0254982 L0,0.122757338 Z M36.4142765,0.0491029351 L36.4142765,3.47455876 L23.5322896,3.47455876 C23.1347774,3.52463696 22.8327472,3.66060626 22.626199,3.88246665 C22.3163767,4.21525723 22.3575572,4.54970925 22.3575572,4.73637856 C22.3575572,4.84944738 22.4471045,5.06694541 22.626199,5.38887263 C23.1352659,5.67378599 23.4372961,5.81624267 23.5322896,5.81624267 L23.5322896,5.81624267 L31.8458134,5.81624267 C33.2707158,5.81624267 34.0418693,6.36017459 34.8398146,7.04627119 C35.63776,7.7323678 36.266328,9.14642455 36.266328,10.3630082 C36.266328,11.5795919 35.7889201,13.0935779 34.9909747,13.7726014 C34.1930294,14.4516248 33.2707158,15.0254982 31.8458134,15.0254982 L31.8458134,15.0254982 L19.0203882,15.0254982 L19.0203882,11.477285 L32.0664561,11.477285 C32.2089463,11.477285 32.8553785,11.1635523 32.8553785,10.3630082 C32.8553785,9.56246414 32.2089463,9.35989628 32.0664561,9.35989628 L32.0664561,9.35989628 L23.3826749,9.23713894 C21.920845,9.04428772 21.040457,8.37330044 20.2496361,7.69427699 C19.4588153,7.01525355 17.9610418,3.97391624 19.9322905,1.71576395 C21.7432701,0.125451899 23.1796263,0.122757338 23.3826749,0.0491029351 L23.3826749,0.0491029351 L36.4142765,0.0491029351 Z M73.6868571,0.0491029351 L73.6868571,3.47455876 L60.8048702,3.47455876 C60.4073581,3.52463696 60.1053279,3.66060626 59.8987797,3.88246665 C59.5889574,4.21525723 59.6301378,4.54970925 59.6301378,4.73637856 C59.6301378,4.84944738 59.7196851,5.06694541 59.8987797,5.38887263 C60.4078466,5.67378599 60.7098768,5.81624267 60.8048702,5.81624267 L60.8048702,5.81624267 L69.118394,5.81624267 C70.5432965,5.81624267 71.3144499,6.36017459 72.1123953,7.04627119 C72.9103406,7.7323678 73.5389086,9.14642455 73.5389086,10.3630082 C73.5389086,11.5795919 73.0615007,13.0935779 72.2635553,13.7726014 C71.46561,14.4516248 70.5432965,15.0254982 69.118394,15.0254982 L69.118394,15.0254982 L56.2929688,15.0254982 L56.2929688,11.477285 L69.3390367,11.477285 C69.4815269,11.477285 70.1279591,11.1635523 70.1279591,10.3630082 C70.1279591,9.56246414 69.4815269,9.35989628 69.3390367,9.35989628 L69.3390367,9.35989628 L60.6552555,9.23713894 C59.1934257,9.04428772 58.3130376,8.37330044 57.5222167,7.69427699 C56.7313959,7.01525355 55.2336224,3.97391624 57.2048711,1.71576395 C59.0158507,0.125451899 60.4522069,0.122757338 60.6552555,0.0491029351 L60.6552555,0.0491029351 L73.6868571,0.0491029351 Z M55.1604573,4.23153576e-15 L55.1604573,3.35078429 L41.0729028,3.35078429 L41.0729028,5.69986871 L53.1057754,5.69986871 L53.1057754,9.18421299 L41.0729028,9.18421299 L41.0729028,11.4291992 L55.0745575,11.4291992 L55.0745575,14.9027408 L37.5194189,14.9027408 L37.5194189,4.23153576e-15 L55.1604573,4.23153576e-15 Z M12.9254398,9.45133296 L3.43006477,9.45133296 L3.43006477,11.6747139 L12.9254398,11.6747139 C13.2631146,11.6747139 13.5257505,11.6000774 13.7133476,11.4508045 C13.9009447,11.3015316 13.9947433,10.8507666 13.9947433,10.589539 L13.9947433,10.589539 L13.9947433,10.272334 C13.9947433,9.72499998 13.6383088,9.45133296 12.9254398,9.45133296 L12.9254398,9.45133296 Z M12.7461163,3.59629897 L3.43006477,3.59629897 L3.43006477,5.86567201 L12.7461163,5.86567201 C13.4376719,5.86567201 14.030288,5.55418944 14.030288,4.93122429 L14.030288,4.93122429 L14.030288,4.50849794 C14.030288,3.90036529 13.4376719,3.59629897 12.7461163,3.59629897 L12.7461163,3.59629897 Z" id="Combined-Shape" fill="#D62C29" fill-rule="nonzero"></path>
                <text id="BSES-Rajdhani-Power" font-family="Arial-BoldMT, Arial" font-size="5.30742857" font-weight="bold" letter-spacing="-0.172800008" fill="#000000">
                    <tspan x="0" y="20.552">BSES </tspan>
                    <tspan x="15.0634687" y="20.552" letter-spacing="-0.111085712">Rajdhani</tspan>
                    <tspan x="36.5862294" y="20.552"> Power  </tspan>
                    <tspan x="55.5550191" y="20.552" letter-spacing="-0.0740571464">Limited</tspan>
                </text>
            </g>
        </g>
    </g>
</svg>