<?xml version="1.0" encoding="UTF-8"?>
<svg width="85px" height="85px" viewBox="0 0 85 85" version="1.1" xmlns="http://www.w3.org/2000/svg" xmlns:xlink="http://www.w3.org/1999/xlink">
    <!-- Generator: Sketch 61.2 (89653) - https://sketch.com -->
    <title>icon/85px/cancel-event</title>
    <desc>Created with Sketch.</desc>
    <g id="Demand-Response_DSO" stroke="none" stroke-width="1" fill="none" fill-rule="evenodd">
        <g id="40" transform="translate(-425.000000, -255.000000)">
            <g id="Popup" transform="translate(365.000000, 195.000000)">
                <g id="Icon" transform="translate(60.000000, 60.000000)">
                    <g id="icon/85px/cancel-event">
                        <g id="Group">
                            <circle id="Oval" fill-opacity="0.534222147" fill="#DEDEDE" cx="42.5" cy="42.5" r="42.5"></circle>
                            <path d="M33.8527812,56.4392097 C33.8527812,56.8085289 34.152155,57.1079027 34.5214742,57.1079027 L51.4952432,57.1079027 C51.8645623,57.1079027 52.1639362,56.8085289 52.1639362,56.4392097 L52.1639362,34.7731216 L33.8527812,34.7731216 L33.8527812,56.4392097 L33.8527812,56.4392097 Z M46.7697568,38.4602614 L49.2773556,38.4602614 L49.2773556,53.0387386 L46.7697568,53.0387386 L46.7697568,38.4602614 Z M41.7545593,38.4602614 L44.2621581,38.4602614 L44.2621581,53.0387386 L41.7545593,53.0387386 L41.7545593,38.4602614 Z M36.7393617,38.4602614 L39.2469605,38.4602614 L39.2469605,53.0387386 L36.7393617,53.0387386 L36.7393617,38.4602614 Z" id="Shape" fill="#D0021B" fill-rule="nonzero"></path>
                            <path d="M48.6446049,30.0730122 L48.6446049,27.668693 C48.6446049,27.2993739 48.345231,27 47.9759119,27 L38.0408055,27 C37.6714863,27 37.3721125,27.2993739 37.3721125,27.668693 L37.3721125,30.0730122 L37.3721125,30.4909453 L37.3721125,30.9088784 L32.6979149,30.9088784 C32.3285957,30.9088784 32.0292219,31.2082523 32.0292219,31.5775714 L32.0292219,33.2685623 C32.0292219,33.637848 32.3285957,33.9372553 32.6979149,33.9372553 L33.8527812,33.9372553 L52.1639362,33.9372553 L53.3188024,33.9372553 C53.6881216,33.9372553 53.9874954,33.637848 53.9874954,33.2685623 L53.9874954,31.5775714 C53.9874954,31.2082523 53.6881216,30.9088784 53.3188024,30.9088784 L48.6446049,30.9088784 L48.6446049,30.4909453 L48.6446049,30.0730122 Z M46.1370061,30.7713951 L39.8797112,30.7713951 L39.8797112,30.4909119 L39.8797112,30.0729787 L39.8797112,29.5075988 L46.1370061,29.5075988 L46.1370061,30.0730122 L46.1370061,30.4909453 L46.1370061,30.7713951 Z" id="Shape" fill="#D0021B" fill-rule="nonzero"></path>
                        </g>
                    </g>
                </g>
            </g>
        </g>
    </g>
</svg>