<?xml version="1.0" encoding="UTF-8"?>
<svg width="16px" height="16px" viewBox="0 0 16 16" version="1.1" xmlns="http://www.w3.org/2000/svg" xmlns:xlink="http://www.w3.org/1999/xlink">
    <!-- Generator: Sketch 61.2 (89653) - https://sketch.com -->
    <title>icon/20px/close</title>
    <desc>Created with Sketch.</desc>
    <g id="Demand-Response_DSO" stroke="none" stroke-width="1" fill="none" fill-rule="evenodd">
        <g id="10" transform="translate(-959.000000, -160.000000)" fill="#727479">
            <g id="Modal-Four" transform="translate(365.000000, 134.000000)">
                <g id="icon/20px/close" transform="translate(594.000000, 26.000000)">
                    <path d="M9.41502158,8.00016677 L15.7068229,1.70810315 C16.0977257,1.31751756 16.0977257,0.683774938 15.7068229,0.293189351 C15.31592,-0.0977297838 14.6828709,-0.0977297838 14.2919681,0.293189351 L8.00016677,6.58525298 L1.70803194,0.293189351 C1.3171291,-0.0977297838 0.684079965,-0.0977297838 0.293177128,0.293189351 C-0.0977257093,0.683774938 -0.0977257093,1.31751756 0.293177128,1.70810315 L6.58531196,8.00016677 L0.293177128,14.2922304 C-0.0977257093,14.682816 -0.0977257093,15.3165586 0.293177128,15.7071442 C0.488628546,15.9022702 0.744783307,16 1.00060453,16 C1.25642576,16 1.51258052,15.9022702 1.70803194,15.7068106 L8.00016677,9.41474702 L14.2919681,15.7068106 C14.4874195,15.9022702 14.7435742,16 14.9993955,16 C15.2552167,16 15.5113715,15.9022702 15.7068229,15.7068106 C16.0977257,15.3162251 16.0977257,14.6824824 15.7068229,14.2918969 L9.41502158,8.00016677 Z" id="Shape"></path>
                </g>
            </g>
        </g>
    </g>
</svg>