<?xml version="1.0" encoding="UTF-8"?>
<svg width="54px" height="47px" viewBox="0 0 54 47" version="1.1" xmlns="http://www.w3.org/2000/svg" xmlns:xlink="http://www.w3.org/1999/xlink">
    <!-- Generator: Sketch 61.2 (89653) - https://sketch.com -->
    <title>icon/56px/drag-n-drop</title>
    <desc>Created with Sketch.</desc>
    <g id="Demand-Response_DSO" stroke="none" stroke-width="1" fill="none" fill-rule="evenodd">
        <g id="4" transform="translate(-656.000000, -257.000000)" fill="#727479">
            <g id="icon/56px/drag-n-drop" transform="translate(656.000000, 257.000000)">
                <g id="cloud-computing">
                    <path d="M27.5562,23.9193 C27.7758,23.8284 28.0242,23.8284 28.2438,23.9193 C28.3545,23.9652 28.4544,24.0309 28.5372,24.1146 L28.5372,24.1146 L35.7363,31.3137 C36.0882,31.6656 36.0882,32.2344 35.7363,32.5863 C35.5608,32.7618 35.3304,32.85 35.1,32.85 C34.8696,32.85 34.6392,32.7618 34.4637,32.5863 L34.4637,32.5863 L28.8,26.9226 L28.8,45.45 C28.8,45.9477 28.3968,46.35 27.9,46.35 C27.4032,46.35 27,45.9477 27,45.45 L27,45.45 L27,26.9226 L21.3363,32.5863 C21.1608,32.7618 20.9304,32.85 20.7,32.85 C20.4696,32.85 20.2392,32.7618 20.0637,32.5863 C19.7118,32.2344 19.7118,31.6656 20.0637,31.3137 L20.0637,31.3137 L27.2628,24.1146 C27.3465,24.0309 27.4455,23.9652 27.5562,23.9193 Z M30.6756,0.45 C38.7261,0.45 45.4032,6.9246 45.8775,15.0246 C50.5557,16.254 54,20.6847 54,25.6248 C54,31.5936 49.1436,36.45 43.1748,36.45 L43.1748,36.45 L39.6,36.45 C39.1032,36.45 38.7,36.0477 38.7,35.55 C38.7,35.0523 39.1032,34.65 39.6,34.65 L39.6,34.65 L43.1748,34.65 C48.1509,34.65 52.2,30.6009 52.2,25.6248 C52.2,21.2949 49.041,17.4348 44.8506,16.6383 C44.7237,16.6212 42.6366,16.3377 40.635,16.6401 C40.5891,16.6473 40.5432,16.6509 40.4982,16.6509 C40.0608,16.6509 39.6774,16.3314 39.6099,15.8859 C39.5352,15.3945 39.8727,14.9355 40.3641,14.8608 C41.7411,14.6502 43.119,14.6835 44.0388,14.7483 C43.4358,7.7715 37.6452,2.25 30.6756,2.25 C26.4492,2.25 22.1994,4.3911 19.62,7.7661 C21.3786,9.2529 22.5,11.4714 22.5,13.95 C22.5,14.4477 22.0968,14.85 21.6,14.85 C21.1032,14.85 20.7,14.4477 20.7,13.95 C20.7,11.7351 19.548,9.7875 17.8137,8.6634 C17.6085,8.5302 17.3952,8.4114 17.1774,8.3043 C17.1162,8.2737 17.055,8.2431 16.9929,8.2152 C16.7472,8.1036 16.4961,8.0037 16.2387,7.9254 C16.209,7.9164 16.1775,7.911 16.1469,7.902 C15.9129,7.8345 15.6753,7.7823 15.4341,7.7427 C15.3648,7.731 15.2955,7.7193 15.2253,7.7103 C14.9526,7.6743 14.6781,7.65 14.4,7.65 C10.926,7.65 8.1,10.4769 8.1,13.95 C8.1,14.0292 8.1063,14.1075 8.1108,14.1858 L8.1108,14.1858 L8.1216,14.355 L8.1135,14.5125 C8.1072,14.6259 8.1,14.7393 8.1,14.85 L8.1,14.85 L8.1,15.417 L7.5888,15.6609 C4.2345,17.2692 1.8,21.15 1.8,24.8886 C1.8,30.2715 6.1785,34.65 11.5605,34.65 L11.5605,34.65 L16.2,34.65 C16.6968,34.65 17.1,35.0523 17.1,35.55 C17.1,36.0477 16.6968,36.45 16.2,36.45 L16.2,36.45 L11.5605,36.45 C5.1858,36.45 -3.55271368e-15,31.2633 -3.55271368e-15,24.8886 C-3.55271368e-15,20.6091 2.5713,16.3332 6.3144,14.2929 C6.3063,14.1795 6.3,14.0661 6.3,13.95 C6.3,9.4833 9.9342,5.85 14.4,5.85 C14.7069,5.85 15.0093,5.8707 15.3063,5.9031 C15.399,5.9139 15.489,5.9319 15.5808,5.9454 C15.7887,5.976 15.9939,6.0111 16.1955,6.057 C16.3017,6.0813 16.4052,6.1101 16.5096,6.138 C16.6977,6.1893 16.8813,6.2451 17.0631,6.309 C17.1675,6.3459 17.271,6.3828 17.3745,6.4233 C17.5599,6.4962 17.7408,6.579 17.919,6.6654 C17.9865,6.6987 18.0576,6.7221 18.1242,6.7572 C21.0564,2.8467 25.7886,0.45 30.6756,0.45 Z" id="Combined-Shape"></path>
                </g>
            </g>
        </g>
    </g>
</svg>