<?xml version="1.0" encoding="UTF-8"?>
<svg width="12px" height="3px" viewBox="0 0 12 3" version="1.1" xmlns="http://www.w3.org/2000/svg" xmlns:xlink="http://www.w3.org/1999/xlink">
    <!-- Generator: Sketch 62 (91390) - https://sketch.com -->
    <title>Combined Shape</title>
    <desc>Created with Sketch.</desc>
    <g id="Demand-Response_DSO" stroke="none" stroke-width="1" fill="none" fill-rule="evenodd">
        <g id="72" transform="translate(-1306.000000, -198.000000)" fill="#00349A">
            <g id="Group" transform="translate(1290.000000, 171.000000)">
                <path d="M17.5,27 C18.3284271,27 19,27.6715729 19,28.5 C19,29.3284271 18.3284271,30 17.5,30 C16.6715729,30 16,29.3284271 16,28.5 C16,27.6715729 16.6715729,27 17.5,27 Z M22,27 C22.8284271,27 23.5,27.6715729 23.5,28.5 C23.5,29.3284271 22.8284271,30 22,30 C21.1715729,30 20.5,29.3284271 20.5,28.5 C20.5,27.6715729 21.1715729,27 22,27 Z M26.5,27 C27.3284271,27 28,27.6715729 28,28.5 C28,29.3284271 27.3284271,30 26.5,30 C25.6715729,30 25,29.3284271 25,28.5 C25,27.6715729 25.6715729,27 26.5,27 Z" id="Combined-Shape"></path>
            </g>
        </g>
    </g>
</svg>