<?xml version="1.0" encoding="UTF-8"?>
<svg width="14px" height="13px" viewBox="0 0 14 13" version="1.1" xmlns="http://www.w3.org/2000/svg" xmlns:xlink="http://www.w3.org/1999/xlink">
    <!-- Generator: Sketch 61.2 (89653) - https://sketch.com -->
    <title>icon/16px/customers</title>
    <desc>Created with Sketch.</desc>
    <g id="Demand-Response_DSO" stroke="none" stroke-width="1" fill="none" fill-rule="evenodd">
        <g id="16" transform="translate(-33.000000, -199.000000)" fill="#727479">
            <g id="Secondary-information" transform="translate(32.000000, 135.000000)">
                <g id="Customers" transform="translate(0.000000, 61.000000)">
                    <g id="icon/16px/customers" transform="translate(1.000000, 3.000000)">
                        <path d="M8.44841285,2.80597801 C9.09573371,3.1935919 9.54966909,3.84919417 9.63269221,4.61054874 C9.89645275,4.72825429 10.1895633,4.79616491 10.5000892,4.79616491 C11.6341331,4.79616491 12.5533222,3.91837444 12.5533222,2.83555149 C12.5533222,1.75260467 11.6341331,0.875 10.5000892,0.875 C9.3764232,0.875 8.46547151,1.73705924 8.44841285,2.80597801 Z M7.10321135,6.82041551 C8.23706065,6.82041551 9.15631464,5.9423773 9.15631464,4.85986402 C9.15631464,3.7771959 8.23706065,2.89931253 7.10321135,2.89931253 C5.96926477,2.89931253 5.0496216,3.77716494 5.0496216,4.85986402 C5.0496216,5.9423773 5.96926477,6.82041551 7.10321135,6.82041551 Z M7.97417573,6.95385229 L6.23208482,6.95385229 C4.78252067,6.95385229 3.6029438,8.08009097 3.6029438,9.4644086 L3.6029438,11.4990331 L3.60848948,11.5308982 L3.75514204,11.5744378 C5.13857957,11.9870111 6.3404689,12.125 7.32980609,12.125 C9.26174752,12.125 10.3820083,11.5989636 10.4510212,11.5653025 L10.5882364,11.4990022 L10.6027979,11.4990022 L10.6027979,9.46437763 C10.6027979,8.08009097 9.42393447,6.95385229 7.97417573,6.95385229 Z M11.3715076,4.9299733 L9.64248634,4.9299733 C9.62370884,5.59056126 9.32845789,6.18543725 8.86151772,6.61302954 C10.1500624,6.97890459 11.0928288,8.11979066 11.0928288,9.4675053 L11.0928288,10.0944321 C12.7996349,10.0344181 13.783394,9.57276212 13.8481909,9.54164029 L13.9854385,9.47499931 L14,9.47499931 L14,7.44000317 C14.0001946,6.05605714 12.820715,4.9299733 11.3715076,4.9299733 Z M3.50049457,4.79619588 C3.90218376,4.79619588 4.27569049,4.68415728 4.59244314,4.49343156 C4.69317353,3.86662859 5.04511371,3.31879146 5.54766301,2.94585593 C5.54977101,2.90906714 5.55330598,2.87274285 5.55330598,2.83558245 C5.55330598,1.75263564 4.6338574,0.875030967 3.50049457,0.875030967 C2.36615881,0.875030967 1.4470994,1.75260467 1.4470994,2.83558245 C1.4470994,3.91859121 2.36612638,4.79619588 3.50049457,4.79619588 Z M5.34445096,6.61302954 C4.87968366,6.18748108 4.58543806,5.59585662 4.56377422,4.93910856 C4.4998529,4.93455641 4.43638562,4.9299733 4.37103735,4.9299733 L2.62914102,4.9299733 C1.17938228,4.9299733 0,6.05605714 0,7.44018897 L0,9.47499931 L0.0053835302,9.50667855 L0.152230667,9.55040395 C1.26182164,9.88171984 2.25248849,10.0339846 3.11291283,10.0815808 L3.11291283,9.46728853 C3.11307498,8.11979066 4.05561437,6.97871879 5.34445096,6.61302954 Z" id="Shape"></path>
                    </g>
                </g>
            </g>
        </g>
    </g>
</svg>