<?xml version="1.0" encoding="UTF-8"?>
<svg width="14px" height="14px" viewBox="0 0 14 14" version="1.1" xmlns="http://www.w3.org/2000/svg" xmlns:xlink="http://www.w3.org/1999/xlink">
    <!-- Generator: Sketch 61.2 (89653) - https://sketch.com -->
    <title>icon/16px/dashboard</title>
    <desc>Created with Sketch.</desc>
    <g id="Demand-Response_DSO" stroke="none" stroke-width="1" fill="none" fill-rule="evenodd">
        <g id="2" transform="translate(-683.000000, -18.000000)" fill="#FFFFFF">
            <g id="Navigation">
                <g id="Dashboard" transform="translate(682.000000, 16.000000)">
                    <g id="icon/16px/dashboard" transform="translate(1.000000, 2.000000)">
                        <path d="M5.5,9 C6.05228475,9 6.5,9.44771525 6.5,10 L6.5,13 C6.5,13.5522847 6.05228475,14 5.5,14 L1.5,14 C0.94771525,14 0.5,13.5522847 0.5,13 L0.5,10 C0.5,9.44771525 0.94771525,9 1.5,9 L5.5,9 Z M12.5,6 C13.0522847,6 13.5,6.44771525 13.5,7 L13.5,13 C13.5,13.5522847 13.0522847,14 12.5,14 L8.5,14 C7.94771525,14 7.5,13.5522847 7.5,13 L7.5,7 C7.5,6.44771525 7.94771525,6 8.5,6 L12.5,6 Z M5.5,0 C6.05228475,-1.01453063e-16 6.5,0.44771525 6.5,1 L6.5,7 C6.5,7.55228475 6.05228475,8 5.5,8 L1.5,8 C0.94771525,8 0.5,7.55228475 0.5,7 L0.5,1 C0.5,0.44771525 0.94771525,1.01453063e-16 1.5,0 L5.5,0 Z M12.5,0 C13.0522847,-1.01453063e-16 13.5,0.44771525 13.5,1 L13.5,4 C13.5,4.55228475 13.0522847,5 12.5,5 L8.5,5 C7.94771525,5 7.5,4.55228475 7.5,4 L7.5,1 C7.5,0.44771525 7.94771525,1.01453063e-16 8.5,0 L12.5,0 Z" id="Combined-Shape"></path>
                    </g>
                </g>
            </g>
        </g>
    </g>
</svg>