<?xml version="1.0" encoding="UTF-8"?>
<svg width="16px" height="16px" viewBox="0 0 16 16" version="1.1" xmlns="http://www.w3.org/2000/svg" xmlns:xlink="http://www.w3.org/1999/xlink">
    <!-- Generator: Sketch 62 (91390) - https://sketch.com -->
    <title>icon/16px/ev</title>
    <desc>Created with Sketch.</desc>
    <g id="icon/16px/ev" stroke="none" stroke-width="1" fill="none" fill-rule="evenodd">
        <path d="M5.64642082,3.29409783 C5.37310195,3.6783825 5.34273319,4.16612842 5.55531453,4.57997345 L5.55531453,4.57997345 L5.55531453,4.59475363 L4.06724512,4.71299506 L3.2472885,7.97941473 L12.7527115,7.97941473 L11.8872017,4.72777524 L10.3535792,4.60953381 C10.6117137,4.22524914 10.6420824,3.7522834 10.4295011,3.33843837 C10.4143167,3.33843837 10.4143167,3.32365819 10.4143167,3.32365819 L10.4143167,3.32365819 L12.2212581,3.47145999 C12.6312364,3.50102034 12.9652928,3.76706358 13.1019523,4.13656806 L13.1019523,4.13656806 L13.9978308,7.53600935 L14.4685466,7.53600935 C14.7570499,7.53600935 14.9848156,7.74293186 15,8.00897509 L15,8.00897509 L15,8.77754443 C15,9.04358766 14.7722343,9.26529035 14.483731,9.26529035 L14.483731,9.26529035 L14.4078091,9.26529035 L14.7114967,11.6005587 C14.6963124,12.2213263 14.2863341,12.7534127 13.7093275,12.9603352 L13.7093275,12.9603352 L13.7093275,14.4531334 C13.7093275,14.7487369 13.4663774,15 13.1475054,15 L13.1475054,15 L12.4186551,15 C12.1149675,15 11.856833,14.7635171 11.856833,14.4531334 L11.856833,14.4531334 L11.856833,13.0637965 L4.12798265,13.0637965 L4.12798265,14.4531334 C4.12798265,14.7487369 3.88503254,15 3.56616052,15 L3.56616052,15 L2.8373102,15 C2.53362256,15 2.27548807,14.7635171 2.27548807,14.4531334 L2.27548807,14.4531334 L2.27548807,12.9603352 C1.69848156,12.7534127 1.28850325,12.2065461 1.28850325,11.5709984 L1.28850325,11.5709984 L1.63774403,9.26529035 L1.51626898,9.26529035 C1.22776573,9.26529035 1,9.05836784 1,8.77754443 L1,8.77754443 L1,8.00897509 C1,7.72815168 1.22776573,7.50644899 1.51626898,7.50644899 L1.51626898,7.50644899 L2.01735358,7.50644899 L2.86767896,4.12178788 C2.98915401,3.73750322 3.33839479,3.47145999 3.7483731,3.44189963 L3.7483731,3.44189963 Z M4.35574837,9.60523448 C3.82429501,9.60523448 3.39913232,10.0190795 3.39913232,10.5363858 C3.39913232,11.0536921 3.82429501,11.4675371 4.35574837,11.4675371 C4.87201735,11.4675371 5.29718004,11.0536921 5.31236443,10.5363858 C5.31236443,10.0190795 4.88720174,9.60523448 4.35574837,9.60523448 Z M11.6138829,9.60523448 C11.0824295,9.60523448 10.6572668,10.0190795 10.6572668,10.5363858 C10.6572668,11.0536921 11.0824295,11.4675371 11.6138829,11.4675371 C12.1453362,11.4675371 12.5704989,11.0536921 12.5704989,10.5363858 C12.5704989,10.0190795 12.1453362,9.60523448 11.6138829,9.60523448 Z M8.21258134,1.12141144 C8.39479393,0.884928572 8.77440347,1.01795019 8.75921909,1.31355378 L8.75921909,1.31355378 L8.63774403,3.35321855 L9.26030369,3.35321855 C9.76138829,3.35321855 10.0347072,3.90008519 9.7462039,4.28436986 L9.7462039,4.28436986 L7.77223427,6.85612109 C7.59002169,7.09260396 7.21041215,6.95958235 7.22559653,6.66397876 L7.22559653,6.66397876 L7.34707158,4.62431399 L6.72451193,4.62431399 C6.22342733,4.62431399 5.93492408,4.07744735 6.23861171,3.69316268 L6.23861171,3.69316268 Z" id="Combined-Shape" fill="#727479"></path>
    </g>
</svg>