<?xml version="1.0" encoding="UTF-8"?>
<svg width="12px" height="14px" viewBox="0 0 12 14" version="1.1" xmlns="http://www.w3.org/2000/svg" xmlns:xlink="http://www.w3.org/1999/xlink">
    <!-- Generator: Sketch 61.2 (89653) - https://sketch.com -->
    <title>icon/16px/events</title>
    <desc>Created with Sketch.</desc>
    <g id="Demand-Response_DSO" stroke="none" stroke-width="1" fill="none" fill-rule="evenodd" fill-opacity="0.8">
        <g id="2" transform="translate(-811.000000, -18.000000)" fill="#FFFFFF">
            <g id="Navigation">
                <g id="DR-Events" transform="translate(809.000000, 16.000000)">
                    <g id="icon/16px/events" transform="translate(2.000000, 2.000000)">
                        <path d="M9.33333247,0.5 C9.70152278,0.5 10,0.798477222 10,1.16666753 L10,1.16666753 L10,1.80000914 L10.6666597,1.80000914 C11.4033141,1.80000914 12,2.38174853 12,3.09998781 L12,3.09998781 L12,12.1999909 C12,12.9182606 11.4033141,13.5 10.6666597,13.5 L10.6666597,13.5 L1.33334028,13.5 C0.596654696,13.5 5.32907052e-15,12.9182301 5.32907052e-15,12.1999909 L5.32907052e-15,12.1999909 L0.00668748258,3.10001828 C0.00668748258,2.38174853 0.596685946,1.80000914 1.33334028,1.80000914 L1.33334028,1.80000914 L2,1.80000914 L2,1.16666753 C2,0.798477222 2.29847722,0.5 2.66666753,0.5 C3.03485785,0.5 3.33333507,0.798477222 3.33333507,1.16666753 L3.33333507,1.16666753 L3.33333507,1.80000914 L8.66666493,1.80000914 L8.66666493,1.16666753 C8.66666493,0.798477222 8.96514215,0.5 9.33333247,0.5 Z M10.6666597,5.04998629 L1.33334028,5.04998629 L1.33334028,12.1999909 L10.6666597,12.1999909 L10.6666597,5.04998629 Z M7.9599949,6.69449008 C8.15656224,6.50283657 8.47008196,6.50283657 8.66664931,6.69449008 L8.66664931,6.69449008 L8.67526106,6.70310184 C8.86076406,6.89336098 8.85690845,7.19797639 8.66664931,7.38347939 L8.66664931,7.38347939 L5.25445776,10.7103722 C5.14626729,10.8158581 4.97370635,10.8158581 4.86551588,10.7103722 L4.86551588,10.7103722 L3.29332756,9.1774858 C3.29041822,9.17464918 3.28754493,9.17177583 3.28470838,9.16886642 C3.09920947,8.97860307 3.10307182,8.67398758 3.29333517,8.48848868 C3.48991183,8.29683457 3.80343911,8.29683976 4.00000941,8.4885004 L4.00000941,8.4885004 L5.05998682,9.52200311 Z" id="Combined-Shape"></path>
                    </g>
                </g>
            </g>
        </g>
    </g>
</svg>