<?xml version="1.0" encoding="UTF-8"?>
<svg width="10px" height="15px" viewBox="0 0 10 15" version="1.1" xmlns="http://www.w3.org/2000/svg" xmlns:xlink="http://www.w3.org/1999/xlink">
    <!-- Generator: Sketch 61.2 (89653) - https://sketch.com -->
    <title>icon/16px/flash</title>
    <desc>Created with Sketch.</desc>
    <g id="Demand-Response_DSO" stroke="none" stroke-width="1" fill="none" fill-rule="evenodd">
        <g id="16" transform="translate(-225.000000, -168.000000)" fill="#727479">
            <g id="Secondary-information" transform="translate(32.000000, 135.000000)">
                <g id="Power" transform="translate(189.000000, 31.000000)">
                    <g id="icon/16px/flash" transform="translate(4.000000, 2.000000)">
                        <path d="M8.58709393,0.75 C8.75550837,0.75 8.89579685,0.836280652 8.98335034,0.974702953 C9.06062979,1.09688196 9.0735097,1.24968004 9.02378304,1.37915517 L8.9864486,1.45360996 L6.808,5.083 L8.79261151,5.0833418 C8.9151769,5.0833418 9.02107691,5.12905791 9.10195287,5.2098997 L9.15778722,5.27695164 L9.20345392,5.35618286 C9.26761547,5.49142244 9.26301004,5.63503375 9.19833732,5.77456209 L9.15239521,5.85768949 L1.56161488,14.1070519 C1.48998245,14.1825674 1.39458462,14.2287449 1.29293945,14.2441953 L1.21580792,14.25 L1.13999195,14.2486037 C1.07322865,14.2454047 1.03138054,14.2355777 0.994262663,14.2081472 L0.957973931,14.1744423 C0.812006847,14.0590214 0.734602226,13.8736118 0.770783608,13.7071526 L0.798548241,13.6259139 L3.90243571,7.56661524 L1.21580792,8.1833418 C1.11476989,8.1833418 1.00996019,8.14295891 0.926230219,8.07638025 L0.867773498,8.02175623 L0.8195515,7.95863884 C0.742272056,7.83645984 0.729392148,7.68366176 0.77246378,7.56661524 L3.90243571,0.974702953 C3.97247851,0.863965112 4.07627169,0.786597927 4.20121545,0.760080566 L4.29869213,0.75 L8.58709393,0.75 Z" id="Shape"></path>
                    </g>
                </g>
            </g>
        </g>
    </g>
</svg>