<?xml version="1.0" encoding="UTF-8"?>
<svg width="16px" height="16px" viewBox="0 0 16 16" version="1.1" xmlns="http://www.w3.org/2000/svg" xmlns:xlink="http://www.w3.org/1999/xlink">
    <!-- Generator: Sketch 62 (91390) - https://sketch.com -->
    <title>icon/16px/generator</title>
    <desc>Created with Sketch.</desc>
    <g id="icon/16px/generator" stroke="none" stroke-width="1" fill="none" fill-rule="evenodd">
        <path d="M12.5684211,3 L3.43157895,3 C2.09052632,3 1,4.09261745 1,5.43624161 L1,13.557047 C1,13.8080537 1.19157895,14 1.44210526,14 L3.40210526,14 C3.57894737,14 3.72631579,13.8966443 3.8,13.7489933 L4.28631579,12.7302013 L11.7136842,12.7302013 L12.2,13.7489933 C12.2736842,13.8966443 12.4357895,14 12.5978947,14 L14.5578947,14 C14.8084211,14 15,13.8080537 15,13.557047 L15,5.43624161 C15,4.09261745 13.9094737,3 12.5684211,3 Z M6.14315789,9.05369128 L6.14315789,9.05369128 C5.81894737,9.05369128 5.55368421,8.78791946 5.55368421,8.46308725 C5.55368421,8.25637584 5.65684211,8.06442953 5.83368421,7.96107383 L7.20421053,7.10469799 C7.23368421,7.07516779 7.27789474,7.07516779 7.30736842,7.07516779 C7.36631579,7.07516779 7.41052632,7.10469799 7.44,7.13422819 C7.49894737,7.19328859 7.52842105,7.28187919 7.46947368,7.3704698 L6.64421053,8.75838926 C6.54105263,8.95033557 6.33473684,9.05369128 6.14315789,9.05369128 Z M8.51578947,10.0872483 C8.45684211,10.1758389 8.35368421,10.2053691 8.26526316,10.190604 L7.02736842,9.93959732 C6.95368421,9.92483221 6.90947368,9.88053691 6.86526316,9.83624161 C6.83578947,9.77718121 6.82105263,9.71812081 6.83578947,9.6442953 C6.86526316,9.5261745 6.96842105,9.43758389 7.08631579,9.43758389 C7.10105263,9.43758389 7.11578947,9.43758389 7.13052632,9.43758389 L8.19157895,9.6442953 L8.19157895,9.6295302 C8.35368421,9.36375839 8.44210526,9.05369128 8.48631579,8.72885906 L8.48631579,8.69932886 L8.10315789,8.69932886 C7.95578947,8.69932886 7.85263158,8.58120805 7.85263158,8.44832215 C7.85263158,8.30067114 7.97052632,8.19731544 8.10315789,8.19731544 L8.48631579,8.19731544 L8.48631579,8.16778523 C8.35368421,7.07516779 7.49894737,6.21879195 6.40842105,6.08590604 L6.37894737,6.08590604 L6.37894737,6.46979866 C6.37894737,6.60268456 6.26105263,6.72080537 6.12842105,6.72080537 C5.99578947,6.72080537 5.87789474,6.60268456 5.87789474,6.46979866 L5.87789474,6.08590604 L5.84842105,6.08590604 C5.42105263,6.13020134 5.00842105,6.30738255 4.65473684,6.57315436 L4.62526316,6.60268456 L4.89052632,6.86845638 C4.99368421,6.95704698 4.99368421,7.13422819 4.89052632,7.22281879 C4.80210526,7.3261745 4.62526316,7.3261745 4.53684211,7.22281879 L4.27157895,6.95704698 L4.25684211,6.98657718 C3.99157895,7.3261745 3.81473684,7.73959732 3.75578947,8.16778523 L3.75578947,8.21208054 L4.13894737,8.21208054 C4.28631579,8.21208054 4.38947368,8.33020134 4.38947368,8.46308725 C4.38947368,8.59597315 4.27157895,8.71409396 4.13894737,8.71409396 L3.75578947,8.71409396 L3.75578947,8.74362416 C3.8,9.06845638 3.88842105,9.36375839 4.05052632,9.6442953 L4.05052632,9.6590604 L5.11157895,9.45234899 C5.25894737,9.42281879 5.37684211,9.5114094 5.40631579,9.6590604 C5.42105263,9.71812081 5.40631579,9.79194631 5.36210526,9.85100671 C5.33263158,9.91006711 5.27368421,9.93959732 5.2,9.95436242 L3.97684211,10.2053691 C3.87368421,10.2201342 3.77052632,10.1758389 3.71157895,10.1020134 C3.38736842,9.6147651 3.21052632,9.05369128 3.21052632,8.47785235 C3.21052632,6.86845638 4.50736842,5.56912752 6.11368421,5.56912752 C7.72,5.56912752 9.01684211,6.86845638 9.01684211,8.47785235 C9.01684211,9.05369128 8.84,9.6 8.51578947,10.0872483 Z M12.7157895,7.65100671 L11.2126316,10.1020134 C11.1684211,10.1758389 11.0947368,10.190604 11.0357895,10.1610738 C10.9768421,10.1463087 10.9178947,10.1020134 10.9326316,10.0134228 L11.0357895,8.33020134 L10.2694737,8.33020134 C10.2105263,8.33020134 10.1663158,8.30067114 10.1368421,8.25637584 C10.1073684,8.21208054 10.1073684,8.15302013 10.1368421,8.10872483 L11.6252632,5.65771812 C11.6547368,5.59865772 11.7136842,5.58389262 11.7431579,5.58389262 C11.7578947,5.58389262 11.7726316,5.58389262 11.7873684,5.58389262 C11.8463158,5.59865772 11.9052632,5.64295302 11.8905263,5.73154362 L11.7873684,7.4147651 L12.5536842,7.4147651 C12.6126316,7.4147651 12.6568421,7.4442953 12.6863158,7.4885906 C12.7452632,7.54765101 12.7452632,7.60671141 12.7157895,7.65100671 Z" id="Shape" fill="#727479"></path>
    </g>
</svg>