<?xml version="1.0" encoding="UTF-8"?>
<svg width="20px" height="20px" viewBox="0 0 20 20" version="1.1" xmlns="http://www.w3.org/2000/svg" xmlns:xlink="http://www.w3.org/1999/xlink">
    <!-- Generator: Sketch 62 (91390) - https://sketch.com -->
    <title>icon/16px/Heavy machinery</title>
    <desc>Created with Sketch.</desc>
    <g id="icon/16px/Heavy-machinery" stroke="none" stroke-width="1" fill="none" fill-rule="evenodd">
        <g id="lorry" transform="translate(0.000000, 4.000000)" fill="#727479">
            <path d="M19.6666797,6.67707031 C19.8506641,6.67707031 19.9999609,6.82640625 19.9999609,7.01039063 L19.9999609,7.01039063 L19.9999609,11.0103906 C19.9999609,11.194375 19.850625,11.3437109 19.6666406,11.3437109 L19.6666406,11.3437109 L18.6666406,11.3437109 C18.6666406,12.0790234 18.0686719,12.6770313 17.3333203,12.6770313 C16.5980078,12.6770313 16,12.0790625 16,11.3437109 L16,11.3437109 L14,11.3437109 C14,12.0790234 13.4020312,12.6770313 12.6666797,12.6770313 C11.9323437,12.6770313 11.3353516,12.0807031 11.3336719,11.3470313 L11.3336719,11.3470313 L10.3319922,11.3480469 C10.2266797,11.3480469 10.1276562,11.2983594 10.065,11.214375 C10.0153516,11.1480469 9.99300781,11.0664063 10,10.9853906 L10,10.9853906 L10,7.01039063 C10,6.82640625 10.1493359,6.67707031 10.3333203,6.67707031 L10.3333203,6.67707031 Z M4.33335937,2.67710937 C4.51734375,2.67710937 4.66667969,2.82644531 4.66667969,3.01042969 L4.66667969,3.01042969 L4.66667969,6.34375 C4.66667969,6.52773437 4.81601562,6.67707031 5,6.67707031 L5,6.67707031 L9,6.67707031 C9.18398437,6.67707031 9.33332031,6.82640625 9.33332031,7.01042969 L9.33332031,7.01042969 L9.33332031,11.0104297 C9.33332031,11.1944141 9.18398437,11.34375 9,11.34375 L9,11.34375 L8,11.34375 C8,12.0791016 7.40195312,12.6770703 6.66664062,12.6770703 C5.93132812,12.6770703 5.33332031,12.0791016 5.33332031,11.34375 L5.33332031,11.34375 L4,11.34375 C4,12.0790625 3.40203125,12.6770703 2.66667969,12.6770703 C2.17535156,12.6770703 1.75,12.4070703 1.51867187,12.0103906 L1.51867187,12.0103906 L0.333320312,12.0103906 C0.149335937,12.0103906 -1.49213975e-13,11.8610547 -1.49213975e-13,11.6770703 L-1.49213975e-13,11.6770703 L-1.49213975e-13,6.34375 C0.0080078125,6.30207031 0.016015625,6.26140625 0.023984375,6.21941406 L0.023984375,6.21941406 L2.35703125,2.88675781 C2.40769531,2.76011719 2.53035156,2.67710937 2.66667969,2.67710937 L2.66667969,2.67710937 Z M12.6666797,10.6770703 C12.2989844,10.6770703 12,10.9760938 12,11.34375 C12,11.7114453 12.2990234,12.0104297 12.6666797,12.0104297 C13.0343359,12.0104297 13.3333203,11.7114063 13.3333594,11.34375 C13.3333594,10.9760547 13.0343359,10.6770703 12.6666797,10.6770703 Z M17.3333203,10.6770703 C16.965625,10.6770703 16.6666406,10.9760938 16.6666406,11.34375 C16.6666406,11.7114453 16.9656641,12.0104297 17.3333203,12.0104297 C17.7010156,12.0104297 18,11.7114063 18,11.34375 C18,10.9760547 17.7009766,10.6770703 17.3333203,10.6770703 Z M2.66667969,10.6770703 C2.29898437,10.6770703 2,10.9760938 2,11.34375 C2,11.7114453 2.29902344,12.0104297 2.66667969,12.0104297 C3.03433594,12.0104297 3.33332031,11.7114063 3.33335937,11.34375 C3.33335937,10.9760547 3.03433594,10.6770703 2.66667969,10.6770703 Z M6.66667969,10.6770703 C6.29898437,10.6770703 6,10.9760938 6,11.34375 C6,11.7114453 6.29902344,12.0104297 6.66667969,12.0104297 C7.03433594,12.0104297 7.33332031,11.7114063 7.33335937,11.34375 C7.33335937,10.9760547 7.03433594,10.6770703 6.66667969,10.6770703 Z M19.6666797,0.010390625 C19.8510156,0.010390625 20,0.251619072 20,0.548902645 L20,0.548902645 L20,5.54373854 C20,5.80131868 19.8506641,6.01039063 19.6666797,6.01039063 L19.6666797,6.01039063 L5.66667969,6.01039063 C5.48269531,6.01039063 5.33335937,5.80131868 5.33335937,5.54373854 L5.33335937,5.54373854 L5.33335937,0.548902645 C5.33335937,0.25167376 5.48234375,0.010390625 5.66667969,0.010390625 L5.66667969,0.010390625 Z M2.26262794,4.00453243 C2.19563575,4.00453243 2.13497169,4.04484493 2.10930763,4.10652462 L2.10930763,4.10652462 L0.923007812,5.77910156 C0.876679687,5.88910156 0.95734375,6.01042969 1.07667969,6.01042969 L1.07667969,6.01042969 L2.83335937,6.01042969 C2.92539062,6.01042969 3.00003906,5.93574219 3.00003906,5.84375 L3.00003906,5.84375 L3.00003906,4.17710937 C3.00003906,4.08507812 2.92535156,4.01042969 2.83335937,4.01042969 L2.83335937,4.01042969 Z" id="Combined-Shape"></path>
        </g>
    </g>
</svg>