<?xml version="1.0" encoding="UTF-8"?>
<svg width="20px" height="20px" viewBox="0 0 20 20" version="1.1" xmlns="http://www.w3.org/2000/svg" xmlns:xlink="http://www.w3.org/1999/xlink">
    <!-- Generator: Sketch 62 (91390) - https://sketch.com -->
    <title>icon/16px/HVAC</title>
    <desc>Created with Sketch.</desc>
    <g id="icon/16px/HVAC" stroke="none" stroke-width="1" fill="none" fill-rule="evenodd">
        <path d="M14.7743551,10.2560396 C15.1807422,10.2337028 15.5907739,10.2734316 15.9843728,10.3734358 C16.1475926,10.4149123 16.2808028,10.5335874 16.3407581,10.6908829 C16.4011609,10.849372 16.3814884,11.0207773 16.2867707,11.1611284 C15.9592866,11.6463149 15.7481751,12.1097187 15.6566756,12.5420896 C15.9748669,12.1747683 16.4837726,11.6308198 17.0138214,11.2403517 C17.1038289,11.1740659 17.2103331,11.1390261 17.3218034,11.1390261 C17.4482785,11.1390261 17.5695744,11.1852769 17.6633331,11.2692531 C17.9676492,11.5417496 18.2275903,11.8575342 18.4359098,12.2078898 L18.4359098,12.2078898 L18.4784499,12.2982559 C18.5229692,12.4228783 18.5185428,12.5614553 18.4634683,12.684359 C18.3941138,12.8391608 18.2590066,12.946433 18.0927603,12.978702 C17.518102,13.0901943 17.0411668,13.2685905 16.6707571,13.5096278 C16.8972997,13.4934293 17.1850338,13.4791278 17.494657,13.4791278 C17.8905578,13.4791278 18.24592,13.5025729 18.5508329,13.5488238 C18.7918262,13.5853556 18.9764023,13.7870903 18.989702,14.0285326 C19.0121879,14.4363714 18.9726724,14.8434642 18.8723065,15.2385148 C18.8139071,15.4683624 18.6077403,15.6288763 18.3709671,15.6288763 C18.2688961,15.6288763 18.169873,15.5984829 18.0846185,15.5409358 C17.5994135,15.2134285 17.1360125,15.002337 16.7036654,14.910837 C17.0709419,15.2290089 17.6148659,15.7378749 18.0053744,16.2679908 C18.1499661,16.4642266 18.1378173,16.737405 17.9764944,16.9175276 C17.7040209,17.2218029 17.388238,17.4817455 17.0379271,17.6901301 C16.9576386,17.737873 16.8662458,17.7631084 16.7735954,17.7631084 C16.5268901,17.7630871 16.3138816,17.5880585 16.2671195,17.346936 C16.1556065,16.7722957 15.9771901,16.2953789 15.7361755,15.9249458 C15.7708954,16.4096207 15.7956619,17.1541743 15.6969797,17.8050326 C15.6604482,18.0459847 15.4587146,18.2305832 15.217295,18.2439043 C15.1438696,18.2479539 15.0693997,18.25 14.9959103,18.25 C14.6623519,18.25 14.3297739,18.2084595 14.0072986,18.1265294 C13.8440788,18.0850528 13.7108473,17.9663778 13.650892,17.8090822 C13.5904892,17.6505718 13.6101617,17.4791665 13.7049008,17.3388154 C14.0323848,16.853629 14.243475,16.3902465 14.3349745,15.9578755 C14.0168045,16.3251756 13.5079201,16.8691028 12.97785,17.2595922 C12.8878425,17.325878 12.7813383,17.3609178 12.6698467,17.3609178 C12.5433929,17.3609178 12.422097,17.3146669 12.328317,17.230712 C12.0240648,16.9582156 11.7641237,16.6424522 11.555719,16.2921179 C11.4696332,16.1473762 11.4593387,15.9692571 11.5281818,15.8156275 C11.5975577,15.6608257 11.7326648,15.5535535 11.8988898,15.5212845 C12.4735481,15.4097922 12.9504833,15.231396 13.320893,14.9903587 C13.0942864,15.0065358 12.8065097,15.0208587 12.4969931,15.0208587 C12.1010923,15.0208587 11.7457514,14.9973922 11.4408172,14.9511414 C11.1998665,14.9146096 11.0152691,14.7128748 11.0019481,14.4714539 C10.9794622,14.0635724 11.0189777,13.6564796 11.1193436,13.2614504 C11.177743,13.0316241 11.3839098,12.8710888 11.6207043,12.8710888 C11.7227753,12.8710888 11.8217984,12.9015036 11.907053,12.9590507 C12.3922366,13.286558 12.8556376,13.4976494 13.2879847,13.5891494 C12.9206868,13.2709563 12.3767416,12.7620689 11.9862544,12.2319957 C11.8417054,12.0357386 11.8538541,11.7625814 12.0151344,11.5824588 C12.2876292,11.2781836 12.6033908,11.0182623 12.953723,10.8098563 C13.0340114,10.7621135 13.1254043,10.736878 13.218076,10.736878 C13.46476,10.736878 13.6777685,10.9118853 13.7245519,11.1530079 C13.8360436,11.7276482 14.0144387,12.2045862 14.2554746,12.5749981 C14.2207547,12.0903018 14.1959456,11.3457482 14.2946704,10.6949112 C14.3312019,10.4539592 14.5329355,10.2693607 14.7743551,10.2560396 Z M5.83350805,10.25 L6.19506121,10.6115532 L5.25043994,11.5536283 L5.25043994,13.6363781 L6.85196763,12.0323043 L7.21352078,12.3938574 L5.60944695,13.9953851 L7.69219679,13.9953851 L8.6342719,13.0507638 L8.99582505,13.412317 L8.1555959,14.25 L8.99582505,15.087683 L8.6342719,15.4492362 L7.69219679,14.5046149 L5.60944695,14.5046149 L7.21352078,16.1061426 L6.85196763,16.4676957 L5.25043994,14.8636219 L5.25043994,16.9463717 L6.19506121,17.8884468 L5.83350805,18.25 L4.99582505,17.4097708 L4.15814205,18.25 L3.79658889,17.8884468 L4.74121015,16.9463717 L4.74121015,14.8636219 L3.13968247,16.4676957 L2.77812931,16.1061426 L4.38220315,14.5046149 L2.29945331,14.5046149 L1.3573782,15.4492362 L0.99582505,15.087683 L1.8360542,14.25 L0.99582505,13.412317 L1.3573782,13.0507638 L2.29945331,13.9953851 L4.38220315,13.9953851 L2.77812931,12.3938574 L3.13968247,12.0323043 L4.74121015,13.6363781 L4.74121015,11.5536283 L3.79658889,10.6115532 L4.15814205,10.25 L4.99582505,11.0902292 L5.83350805,10.25 Z M14.9958464,12.8235805 L14.9265984,12.8253282 C14.9180729,12.8257331 14.9095901,12.8265217 14.9010646,12.8270759 C14.8868484,12.8280137 14.8726322,12.8289728 14.8585439,12.8303156 L14.8585439,12.8303156 L14.8262111,12.8340029 L14.8262111,12.8340029 L14.7920241,12.8383509 L14.7920241,12.8383509 L14.7546613,12.8443614 C14.745539,12.8459173 14.7364594,12.8475158 14.7274011,12.8492422 C14.7132276,12.8519704 14.6990966,12.8549117 14.6850083,12.8580661 L14.6850083,12.8580661 L14.6649522,12.8627125 C14.6489243,12.866549 14.6329391,12.8705986 14.6170391,12.8750106 C14.6129682,12.8761402 14.6089612,12.8773124 14.6049117,12.8784634 L14.6049117,12.8784634 L14.5509882,12.8949602 L14.5509882,12.8949602 C14.5275432,12.9028037 14.507892,12.9097733 14.4883687,12.9172331 L14.4883687,12.9172331 C14.4332943,12.9382485 14.3805217,12.9622265 14.3295821,12.9892523 L14.3295821,12.9892523 L14.3038006,13.0033567 L14.3038006,13.0033567 L14.2789835,13.017557 C14.2781523,13.0180685 14.2772998,13.0185374 14.2764472,13.0190276 C14.2599718,13.0287041 14.2437308,13.0387002 14.2276816,13.0490161 L14.2276816,13.0490161 C13.9944039,13.1994912 13.8079948,13.4149521 13.6946063,13.6669447 C13.6944571,13.667243 13.6942866,13.6675414 13.6941374,13.6678398 L13.6510652,13.7749681 L13.6510652,13.7749681 L13.616641,13.8861567 C13.6144031,13.8945756 13.6124209,13.9030585 13.6103535,13.9115201 C13.6073483,13.9238181 13.6044709,13.9361374 13.6017854,13.9485421 C13.5999311,13.9571102 13.5981194,13.965657 13.5964357,13.9742465 L13.5964357,13.9742465 L13.588507,14.0185364 C13.5875266,14.024483 13.5863756,14.0304082 13.5854805,14.0363761 C13.5824113,14.0566881 13.5798537,14.077128 13.5776584,14.0976958 L13.5776584,14.0976958 L13.5758041,14.1176241 C13.5743547,14.1332684 13.5731399,14.1489767 13.5722021,14.1647488 C13.5718184,14.1713987 13.5713921,14.1780273 13.5710938,14.1846772 C13.5701133,14.206332 13.5694313,14.228072 13.5694313,14.2499613 L13.5694313,14.2499613 L13.571179,14.3192097 C13.571584,14.3277352 13.5723726,14.3362181 13.5729267,14.3447436 C13.5738645,14.3589598 13.5748236,14.3731761 13.5761664,14.3872645 L13.5761664,14.3872645 L13.5798537,14.4195975 L13.5798537,14.4195975 L13.5842016,14.4537848 L13.5842016,14.4537848 L13.5902121,14.4911478 C13.591768,14.5002701 13.5933665,14.5093497 13.5950929,14.5184081 C13.5978211,14.5325817 13.6007623,14.5467128 13.6039168,14.5608011 L13.6039168,14.5608011 L13.6085631,14.5808574 C13.6123996,14.5968853 13.6164492,14.6128707 13.6208611,14.6287707 C13.6219907,14.6328417 13.623163,14.6368486 13.6243139,14.6408983 L13.6243139,14.6408983 L13.6408107,14.6948221 L13.6408107,14.6948221 C13.6486541,14.7182672 13.6556236,14.7379185 13.6630834,14.7574419 L13.6630834,14.7574419 C13.6840987,14.8124314 13.7080765,14.8652469 13.7351235,14.9162294 L13.7351235,14.9162294 L13.7492278,14.9420111 L13.7492278,14.9420111 L13.763428,14.9668283 C13.7639395,14.9676595 13.7644084,14.9685121 13.7648986,14.9693646 C13.774575,14.9858402 13.7845711,15.0020813 13.7948869,15.0181305 L13.7948869,15.0181305 C13.9453612,15.2514096 14.1608207,15.4378198 14.4128119,15.551209 C14.4131102,15.5513582 14.4134086,15.5515287 14.413707,15.5516779 L14.520864,15.594769 L14.520864,15.594769 L14.6320652,15.629196 C14.6404628,15.6314127 14.648903,15.6333735 14.6573219,15.635441 C14.6696625,15.6384462 14.6820457,15.6413449 14.6944929,15.6440304 C14.702997,15.6458847 14.7115011,15.6476751 14.7200479,15.6493589 L14.7200479,15.6493589 L14.7645934,15.6573302 C14.770476,15.6582893 14.7763159,15.6594189 14.7821985,15.6603141 C14.8025104,15.6633833 14.8229928,15.665941 14.8435817,15.6681363 C14.850189,15.6688396 14.8568175,15.6693725 14.8634247,15.6699906 C14.8790903,15.6714399 14.8948197,15.6726548 14.9106344,15.6735926 C14.917263,15.6739762 14.9238915,15.6744025 14.9305201,15.6747009 L14.9305201,15.6747009 L14.995825,15.6763634 C15.0190569,15.6763634 15.0421396,15.675724 15.0650944,15.6746157 C15.0735985,15.6741894 15.0820813,15.6734221 15.0905855,15.6728679 C15.1048017,15.6719301 15.1190392,15.6709923 15.1331488,15.6696282 L15.1331488,15.6696282 L15.1653963,15.665941 L15.1653963,15.665941 L15.19969,15.6615716 L15.19969,15.6615716 L15.2369249,15.6555825 C15.2460684,15.6540266 15.255212,15.652428 15.2643129,15.6506803 C15.2784439,15.6479735 15.2925109,15.6450322 15.3065565,15.6418777 L15.3065565,15.6418777 L15.3268045,15.6371887 C15.3427684,15.6333522 15.3586897,15.6293239 15.3745257,15.6249333 C15.3786606,15.6238037 15.3827741,15.6225888 15.3868876,15.6214165 C15.404855,15.6162586 15.4227585,15.6108662 15.4405554,15.6049836 C15.4418981,15.604536 15.4432196,15.6040671 15.4445623,15.6036195 C15.4642561,15.5970762 15.4838434,15.5901279 15.5033027,15.5826894 L15.5033027,15.5826894 C15.558228,15.5617167 15.6110431,15.5377387 15.6620254,15.5106915 L15.6620254,15.5106915 L15.6880173,15.4964673 L15.6880173,15.4964673 L15.7129863,15.4821737 L15.7129863,15.4821737 C15.7316996,15.4711971 15.7480685,15.461137 15.7642242,15.4507359 L15.7648157,15.4503656 C15.9972036,15.3006444 16.1836553,15.0850984 16.2970865,14.8330631 C16.2972356,14.8327647 16.2974062,14.8324663 16.2975554,14.832168 L16.3406275,14.7250397 L16.3406275,14.7250397 L16.3750517,14.6138511 C16.3772897,14.6054322 16.3792718,14.5969493 16.3813393,14.5884877 C16.3843445,14.5761897 16.3872218,14.5638703 16.3899073,14.5514657 C16.3917616,14.5428976 16.3935733,14.5343508 16.3952571,14.5257613 L16.3952571,14.5257613 L16.4031857,14.4814713 C16.4041662,14.4755248 16.4053171,14.4695996 16.4062123,14.4636317 C16.4092814,14.4433197 16.4118391,14.4228798 16.4140344,14.402312 L16.4140344,14.402312 L16.4158887,14.3823837 C16.417338,14.3667394 16.4185529,14.3510311 16.4194907,14.3352589 C16.4198743,14.328609 16.4203006,14.3219805 16.420599,14.3153306 C16.4215794,14.2936758 16.4222614,14.2719357 16.4222614,14.2500465 L16.4222614,14.2500465 L16.4205137,14.1807768 C16.4200874,14.1722513 16.4193202,14.1637471 16.418766,14.1552429 C16.4178282,14.1410266 16.4168904,14.1268104 16.4155263,14.1127006 C16.414482,14.1018946 16.4131179,14.0911524 16.4118391,14.080389 C16.410475,14.0689435 16.4091109,14.0575193 16.4074698,14.0461591 L16.4074698,14.0461591 L16.4014593,14.0088387 C16.3999034,13.9997164 16.3983049,13.9905941 16.3965785,13.9815358 C16.3938504,13.9673834 16.3909091,13.9532737 16.3877547,13.9392066 L16.3877547,13.9392066 L16.383087,13.9190651 C16.3792505,13.9030585 16.3752009,13.8871158 16.3708103,13.871237 C16.369702,13.8671448 16.3685084,13.8630739 16.3673362,13.8590029 L16.3673362,13.8590029 L16.3508608,13.8051857 L16.3508608,13.8051857 C16.342996,13.7816553 16.3360478,13.7620253 16.328588,13.7425232 L16.328588,13.7425232 C16.3075728,13.6875337 16.2835949,13.6347182 16.2565479,13.5837357 L16.2565479,13.5837357 L16.2424436,13.5579541 L16.2424436,13.5579541 L16.2282434,13.5331369 C16.2277319,13.5323056 16.227263,13.5314531 16.2267728,13.5306005 C16.2170964,13.514125 16.2071003,13.4978839 16.1967845,13.4818346 L16.1967845,13.4818346 C16.0463102,13.2485555 15.8308507,13.0621454 15.5788596,12.9487562 C15.5785612,12.948607 15.5782628,12.9484365 15.5779644,12.9482873 L15.4708367,12.9052148 L15.4708367,12.9052148 L15.3596488,12.8707904 C15.3512299,12.8685525 15.3427471,12.8665703 15.3342856,12.8645029 C15.3219876,12.8614976 15.3096683,12.8586203 15.2972638,12.8559347 C15.2886957,12.8540804 15.280149,12.8522688 15.2715596,12.850585 L15.2715596,12.850585 L15.2272698,12.8426563 C15.2213233,12.8416758 15.2153981,12.8405249 15.2094303,12.8396297 C15.1891184,12.8365605 15.1686786,12.8340029 15.148111,12.8318076 L15.148111,12.8318076 L15.1281827,12.8299533 C15.1125385,12.8285039 15.0968304,12.827289 15.0810583,12.8263512 C15.0744084,12.8259676 15.0677799,12.8255413 15.06113,12.8252429 C15.0394754,12.8242625 15.0177355,12.8235805 14.9958464,12.8235805 L14.9958464,12.8235805 Z M16.0028076,1.27941312 C16.0502539,1.24493071 16.1129639,1.24050689 16.1651563,1.2675186 C16.2171875,1.29436917 16.25,1.34792383 16.25,1.40651756 C16.25,2.13598014 16.6174268,2.63048189 17.0428467,3.20311836 C17.5022803,3.82166303 18.0230615,4.52260511 18.1089746,5.64114468 C18.1089746,5.64114468 18.125,5.85947955 18.125,5.93745315 C18.125,7.48535288 16.8676807,8.74532306 15.3207324,8.74976153 L15.3207324,8.74976153 C13.7617432,8.74976153 12.5,7.48809214 12.5,5.93745315 C12.5,5.8842061 12.5001465,5.8309444 12.5033545,5.77784384 C12.5449694,4.32683682 13.1989616,3.86455048 13.3426291,3.78034005 L13.3692969,3.76580856 C13.4143115,3.74352829 13.4665039,3.74521286 13.5109033,3.76840133 C13.5548486,3.79189741 13.5850537,3.83491986 13.5922314,3.88435831 C13.5937549,3.89474405 13.7381006,4.84788818 14.3753076,4.98398675 C14.3779004,4.57355236 14.3963721,3.95210731 14.5359863,3.39931945 C14.7370947,2.60531588 15.3128076,1.77315315 16.0028076,1.27941312 Z M15.5233936,5.78929891 C15.3741553,5.96445021 15.2563672,6.18294621 15.2070752,6.38831722 C15.1516895,6.61993821 15.1471045,6.87657873 15.1471045,7.09902981 C15.1471045,7.18538231 15.0772168,7.25526997 14.9908496,7.25526997 C14.7276318,7.25526997 14.5655908,7.07629544 14.4749463,6.88160314 C14.4265771,6.98704255 14.3824707,7.14556787 14.3762158,7.37778945 C14.3748535,7.40097792 14.3749954,7.41990369 14.3749954,7.43866833 C14.3749954,7.98931752 14.7955273,8.43728119 15.3125,8.43728119 C15.8294727,8.43728119 16.25,7.98930287 16.2500293,7.43866833 C16.2500293,7.40967909 16.2480371,7.38266738 16.2460596,7.35581681 C16.2132471,6.90281407 16.026333,6.63716477 15.8455127,6.38023128 C15.7191699,6.20064151 15.5897656,6.01664257 15.5233936,5.78929891 Z M3.88538553,5.8820931 C4.42169827,6.09733394 4.73971347,6.31810104 5.17191911,6.72602558 L5.40023496,6.9440739 L5.45551008,6.99613907 C5.50898077,7.04613939 5.55761631,7.0904527 5.60662042,7.13364705 C6.66908176,8.07014685 7.90296369,7.93575206 8.64251147,6.78494944 C8.71129666,6.67791352 8.83632004,6.66100035 8.921759,6.74717282 C9.00719797,6.83334529 9.02069852,6.98997164 8.95191332,7.09700757 C8.07490557,8.46171022 6.60470153,8.62184529 5.37805209,7.54062294 C5.32589534,7.49464971 5.27447883,7.44780606 5.21838606,7.39535977 L4.96261596,7.15164143 C4.54757355,6.75640359 4.26536697,6.55712115 3.76420295,6.35598671 C2.90776501,6.01226856 1.9062685,6.3564878 1.3390572,7.11150157 C1.26388235,7.21156666 1.13818989,7.21633967 1.05831523,7.12216238 C0.978440579,7.02798509 0.974630637,6.87052053 1.04980549,6.77045544 C1.72041309,5.87781107 2.8808835,5.47895172 3.88538553,5.8820931 Z M3.88538553,4.14468215 C4.42169827,4.35992299 4.73971347,4.58069009 5.17191911,4.98861463 L5.40023496,5.20666295 L5.45551008,5.25872812 C5.50898077,5.30872844 5.55761631,5.35304175 5.60662042,5.3962361 C6.66908176,6.3327359 7.90296369,6.1983411 8.64251147,5.04753849 C8.71129666,4.94050256 8.83632004,4.92358939 8.921759,5.00976187 C9.00719797,5.09593434 9.02069852,5.25256069 8.95191332,5.35959661 C8.07490557,6.72429927 6.60470153,6.88443434 5.37805209,5.80321199 C5.32589534,5.75723876 5.27447883,5.7103951 5.21838606,5.65794882 L4.96261596,5.41423048 C4.54757355,5.01899264 4.26536697,4.8197102 3.76420295,4.61857575 C2.90776501,4.27485761 1.9062685,4.61907685 1.3390572,5.37409062 C1.26388235,5.47415571 1.13818989,5.47892871 1.05831523,5.38475142 C0.978440579,5.29057413 0.974630637,5.13310957 1.04980549,5.03304448 C1.72041309,4.14040012 2.8808835,3.74154077 3.88538553,4.14468215 Z M3.88538553,2.40727175 C4.42169827,2.62251259 4.73971347,2.84327969 5.17191911,3.25120423 L5.40023496,3.46925255 L5.45551008,3.52131772 C5.50898077,3.57131804 5.55761631,3.61563135 5.60662042,3.6588257 C6.66908176,4.5953255 7.90296369,4.4609307 8.64251147,3.31012809 C8.71129666,3.20309216 8.83632004,3.18617899 8.921759,3.27235147 C9.00719797,3.35852394 9.02069852,3.51515029 8.95191332,3.62218621 C8.07490557,4.98688887 6.60470153,5.14702394 5.37805209,4.06580159 C5.32589534,4.01982836 5.27447883,3.9729847 5.21838606,3.92053842 L4.96261596,3.67682008 C4.54757355,3.28158224 4.26536697,3.0822998 3.76420295,2.88116535 C2.90776501,2.53744721 1.9062685,2.88166645 1.3390572,3.63668022 C1.26388235,3.73674531 1.13818989,3.74151831 1.05831523,3.64734102 C0.978440579,3.55316373 0.974630637,3.39569917 1.04980549,3.29563408 C1.72041309,2.40298972 2.8808835,2.00413037 3.88538553,2.40727175 Z" id="Combined-Shape" fill="#727479"></path>
    </g>
</svg>