<?xml version="1.0" encoding="UTF-8"?>
<svg width="20px" height="20px" viewBox="0 0 20 20" version="1.1" xmlns="http://www.w3.org/2000/svg" xmlns:xlink="http://www.w3.org/1999/xlink">
    <!-- Generator: Sketch 62 (91390) - https://sketch.com -->
    <title>icon/16px/ICT</title>
    <desc>Created with Sketch.</desc>
    <g id="icon/16px/ICT" stroke="none" stroke-width="1" fill="none" fill-rule="evenodd">
        <path d="M7.30666667,17.8723404 L7.30666667,19.6542553 C7.30666667,19.8452048 7.15145871,20 6.96,20 C6.79247363,20 6.65270174,19.881485 6.62037637,19.7239349 L6.61333333,19.6542553 L6.61333333,17.8723404 L7.30666667,17.8723404 Z M9.22666667,17.8723404 L9.22666667,19.6533333 C9.22666667,19.844792 9.07145871,20 8.88,20 C8.71247363,20 8.57270174,19.8811689 8.54037637,19.7231988 L8.53333333,19.6533333 L8.53333333,17.8723404 L9.22666667,17.8723404 Z M11.36,17.8723404 L11.36,19.6533333 C11.36,19.844792 11.204792,20 11.0133333,20 C10.845807,20 10.7060351,19.8811689 10.6737097,19.7231988 L10.6666667,19.6533333 L10.6666667,17.8723404 L11.36,17.8723404 Z M13.4933333,17.8723404 L13.4933333,19.6533333 C13.4933333,19.844792 13.3381254,20 13.1466667,20 C12.9791403,20 12.8393684,19.8811689 12.807043,19.7231988 L12.8,19.6533333 L12.8,17.8723404 L13.4933333,17.8723404 Z M9.97333333,4.62765957 C7.02781467,4.62765957 4.64,7.00912367 4.64,9.94680851 C4.64,10.950215 4.91956817,11.9117601 5.43490489,12.7420755 L5.58126386,12.9652044 L5.66729775,13.0836596 L4.66396388,14.8902548 C4.60281412,15.0008649 4.62830659,15.1355277 4.71777189,15.2164884 L4.76773066,15.2521337 L4.82494001,15.2757375 C4.91797255,15.3019792 5.01834431,15.2753149 5.08612018,15.2071957 L5.13021638,15.1485125 L6.21632726,13.1943264 L6.21632726,13.1943264 L6.24141171,13.1311081 C6.25788995,13.0663673 6.248978,12.9985468 6.21853148,12.9410358 L6.18104958,12.887457 L6.16229367,12.8576861 C5.52447503,12.0283818 5.17333333,11.0145585 5.17333333,9.94680851 C5.17333333,7.30289216 7.32236653,5.15957447 9.97333333,5.15957447 C12.6243001,5.15957447 14.7733333,7.30289216 14.7733333,9.94680851 C14.7733333,12.5907249 12.6243001,14.7340426 9.97333333,14.7340426 C9.03274503,14.7340426 8.13298772,14.463997 7.36156317,13.9640457 C7.23807025,13.8840114 7.07290581,13.9189753 6.99265807,14.0421397 C6.91241032,14.1653042 6.94746745,14.3300294 7.07096036,14.4100637 C7.92824338,14.9656589 8.92879983,15.2659574 9.97333333,15.2659574 C12.918852,15.2659574 15.3066667,12.8844934 15.3066667,9.94680851 C15.3066667,7.00912367 12.918852,4.62765957 9.97333333,4.62765957 Z M10.2407092,8.77659574 L8.69262411,8.77659574 C8.54573987,8.77659574 8.42666667,8.89566895 8.42666667,9.04255319 C8.42666667,9.16845397 8.51414902,9.27392215 8.63164251,9.30148651 L8.69262411,9.30851064 L9.92666667,9.30759574 L9.3438334,12.6029113 L9.33675235,12.6373482 L9.33675235,12.6373482 L9.33427984,12.6732521 L9.3346368,12.7071551 L9.3346368,12.7071551 C9.33571255,12.7542875 9.33920304,12.8011341 9.34507555,12.8475574 C9.42956413,13.5154543 9.99445921,14.022695 10.6693502,14.0238729 C11.2407619,14.0248702 11.7433568,13.6613569 11.931806,13.1282353 C11.980773,12.9897079 11.9078701,12.8378183 11.7689729,12.7889803 C11.6499181,12.7471191 11.5210208,12.7945567 11.4557864,12.8962005 L11.4288147,12.9513771 L11.4226418,12.9682538 C11.3041988,13.2814726 11.0064564,13.4925456 10.6702786,13.4919588 C10.2659625,13.4912532 9.92537652,13.1854281 9.87421432,12.780982 L9.87129747,12.7545229 L9.87129747,12.7545229 L9.86922182,12.7278955 L9.86766667,12.6995957 L10.502012,9.11727188 L10.5057043,9.05565382 L10.5055135,9.05258884 L10.5066667,9.04255319 C10.5066667,8.89566895 10.3875935,8.77659574 10.2407092,8.77659574 Z M10.0266667,6.0106383 C9.40810775,6.0106383 8.90666667,6.51074576 8.90666667,7.12765957 C8.90666667,7.74457339 9.40810775,8.24468085 10.0266667,8.24468085 C10.6452256,8.24468085 11.1466667,7.74457339 11.1466667,7.12765957 C11.1466667,6.51074576 10.6452256,6.0106383 10.0266667,6.0106383 Z M10.0266667,6.64893617 C10.2917633,6.64893617 10.5066667,6.86326794 10.5066667,7.12765957 C10.5066667,7.39205121 10.2917633,7.60638298 10.0266667,7.60638298 C9.76156999,7.60638298 9.54666667,7.39205121 9.54666667,7.12765957 C9.54666667,6.86326794 9.76156999,6.64893617 10.0266667,6.64893617 Z M17.8666667,8.45744681 L19.6542553,8.45744681 C19.8452048,8.45744681 20,8.61224197 20,8.80319149 C20,8.994141 19.8452048,9.14893617 19.6542553,9.14893617 L17.8666667,9.14893617 L17.8666667,10.5851064 L19.6542553,10.5851064 C19.8452048,10.5851064 20,10.7399015 20,10.9308511 C20,11.1218006 19.8452048,11.2765957 19.6542553,11.2765957 L17.8666667,11.2765957 L17.8666667,12.712766 L19.6542553,12.712766 C19.8452048,12.712766 20,12.8675611 20,13.0585106 C20,13.2494602 19.8452048,13.4042553 19.6542553,13.4042553 L17.8666667,13.4042553 L17.8666667,17.4468085 C17.8666667,17.6524464 17.6995196,17.8191489 17.4933333,17.8191489 L2.50666667,17.8191489 C2.30048036,17.8191489 2.13333333,17.6524464 2.13333333,17.4468085 L2.13333333,13.4042553 L0.345744681,13.4042553 C0.154795166,13.4042553 -6.73872346e-15,13.2494602 -6.69195432e-15,13.0585106 C-6.65103132e-15,12.8914298 0.118515049,12.7520297 0.276065068,12.7197903 L0.345744681,12.712766 L2.13333333,12.712766 L2.13333333,11.2765957 L0.345744681,11.2765957 C0.154795166,11.2765957 -7.18281267e-15,11.1218006 -7.13604353e-15,10.9308511 C-7.09512053e-15,10.7637702 0.118515049,10.6243701 0.276065068,10.5921307 L0.345744681,10.5851064 L2.13333333,10.5851064 L2.13333333,9.14893617 L0.345744681,9.14893617 C0.154795166,9.14893617 -6.73872346e-15,8.994141 -6.69195432e-15,8.80319149 C-6.65103132e-15,8.63611066 0.118515049,8.49671051 0.276065068,8.46447111 L0.345744681,8.45744681 L2.13333333,8.45744681 L2.13333333,7.23404255 L0.345744681,7.23404255 C0.154795166,7.23404255 -6.73872346e-15,7.07924739 -6.69195432e-15,6.88829787 C-6.65103132e-15,6.72121705 0.118515049,6.58181689 0.276065068,6.54957749 L0.345744681,6.54255319 L2.13333333,6.54255319 L2.13333333,2.5 C2.13333333,2.29436206 2.30048036,2.12765957 2.50666667,2.12765957 L6.61333333,2.12765957 L6.61333333,0.346666667 C6.61333333,0.155207953 6.76854129,-1.74118644e-15 6.96,-1.77635684e-15 C7.15145871,-1.81152723e-15 7.30666667,0.155207953 7.30666667,0.346666667 L7.30666667,2.12765957 L8.53333333,2.12765957 L8.53333333,0.346666667 C8.53333333,0.155207953 8.68854129,-1.74118644e-15 8.88,-1.77635684e-15 C9.07145871,-1.81152723e-15 9.22666667,0.155207953 9.22666667,0.346666667 L9.22666667,2.12765957 L10.6666667,2.12765957 L10.6666667,0.346666667 C10.6666667,0.155207953 10.8218746,-1.74118644e-15 11.0133333,-1.77635684e-15 C11.204792,-1.81152723e-15 11.36,0.155207953 11.36,0.346666667 L11.36,2.12765957 L12.8,2.12765957 L12.8,0.346666667 C12.8,0.155207953 12.955208,-1.74118644e-15 13.1466667,-1.77635684e-15 C13.3381254,-1.81152723e-15 13.4933333,0.155207953 13.4933333,0.346666667 L13.4933333,2.12765957 L17.4933333,2.12765957 C17.6995196,2.12765957 17.8666667,2.29436206 17.8666667,2.5 L17.8666667,6.54255319 L19.6542553,6.54255319 C19.8452048,6.54255319 20,6.69734836 20,6.88829787 C20,7.07924739 19.8452048,7.23404255 19.6542553,7.23404255 L17.8666667,7.23404255 L17.8666667,8.45744681 Z" id="Combined-Shape" fill="#727479"></path>
    </g>
</svg>