<?xml version="1.0" encoding="UTF-8"?>
<svg width="85px" height="85px" viewBox="0 0 85 85" version="1.1" xmlns="http://www.w3.org/2000/svg" xmlns:xlink="http://www.w3.org/1999/xlink">
    <!-- Generator: Sketch 61.2 (89653) - https://sketch.com -->
    <title>icon/85px/launch</title>
    <desc>Created with Sketch.</desc>
    <g id="Demand-Response_DSO" stroke="none" stroke-width="1" fill="none" fill-rule="evenodd">
        <g id="32" transform="translate(-425.000000, -194.000000)">
            <g id="Popup" transform="translate(365.000000, 134.000000)">
                <g id="icon/85px/launch" transform="translate(60.000000, 60.000000)">
                    <circle id="Oval" stroke="#DFE2E5" fill="#F7F7F7" cx="42.5" cy="42.5" r="42"></circle>
                    <g id="download-" transform="translate(25.000000, 25.000000)" fill="#00349A">
                        <path d="M33.5416895,24.7916895 C34.3470996,24.7916895 34.9999316,25.4445898 34.9999316,26.25 L34.9999316,26.25 L34.9999316,33.5416895 C34.9999316,34.3470996 34.3470312,35 33.5416211,35 L33.5416211,35 L1.45831055,35 C0.652900391,35 -1.45661261e-13,34.3470996 -1.45661261e-13,33.5416895 L-1.45661261e-13,33.5416895 L-1.45661261e-13,26.25 C-1.45661261e-13,25.4445898 0.652900391,24.7916895 1.45837891,24.7916895 C2.26378906,24.7916895 2.91668945,25.4445898 2.91668945,26.25 L2.91668945,26.25 L2.91668945,32.0833105 L32.0833789,32.0833105 L32.0833789,26.25 C32.0833789,25.4445898 32.7362793,24.7916895 33.5416895,24.7916895 Z M17.5,-3.64153152e-13 C18.3054102,-3.64153152e-13 18.9583105,0.652900391 18.9581738,1.45831055 L18.9581738,1.45831055 L18.9581738,21.2709082 L23.7602832,16.4687988 C24.3297852,15.8992969 25.2531836,15.8992969 25.8226855,16.4687988 C26.3921875,17.0383008 26.3921875,17.9616992 25.8226855,18.5312012 L25.8226855,18.5312012 L18.5309961,25.8228906 C18.5305176,25.8233691 18.5299707,25.8238477 18.5294238,25.8243262 C18.4959277,25.8577539 18.4607227,25.8894727 18.4241504,25.9194824 C18.4071973,25.9333594 18.3893555,25.945459 18.3719238,25.9585156 C18.3512793,25.9739648 18.3310449,25.9899609 18.3095117,26.0043848 C18.2887305,26.0182617 18.2671289,26.0303613 18.2458008,26.0430762 L18.2458008,26.0430762 L18.1872168,26.077666 C18.1654785,26.0893555 18.1430566,26.0991992 18.1208398,26.1096582 C18.0999219,26.1195703 18.0793457,26.1300293 18.0578809,26.138916 C18.0363477,26.1478027 18.0143359,26.1549805 17.9924609,26.1628418 C17.9694922,26.1711133 17.9467285,26.1799316 17.9232129,26.187041 C17.9013379,26.1936719 17.8791211,26.1985254 17.8569727,26.2040625 C17.8329785,26.2101465 17.8093262,26.2168457 17.7848535,26.2216992 C17.7592871,26.2268262 17.7333789,26.229834 17.7076074,26.2335254 C17.6862793,26.2366016 17.6653613,26.2406348 17.6438281,26.2427539 C17.548125,26.2521875 17.4516699,26.2521875 17.3559668,26.2427539 C17.3343652,26.2406348 17.3134473,26.2365332 17.2921875,26.2335254 C17.266416,26.2297656 17.2405762,26.2267578 17.2149414,26.2216992 C17.1905371,26.2168457 17.1668164,26.2101465 17.1428223,26.2040625 C17.1207422,26.1985254 17.098457,26.1936719 17.076582,26.187041 C17.0530664,26.1799316 17.0303711,26.1711133 17.007334,26.1628418 C16.985459,26.1550488 16.9634473,26.1478027 16.9419141,26.138916 C16.9204492,26.1299609 16.899873,26.1195703 16.8789551,26.1096582 C16.8567383,26.0991992 16.8343164,26.0892871 16.8125781,26.077666 C16.7925488,26.0669336 16.7734766,26.0546973 16.7539941,26.0430762 C16.732666,26.0303613 16.7110645,26.0183301 16.6902832,26.0043848 C16.66875,25.9900293 16.6485156,25.9739648 16.6278711,25.9585156 C16.6104395,25.945459 16.5925977,25.9334277 16.5756445,25.9194824 C16.5390039,25.8894043 16.5038672,25.8576855 16.4703711,25.8243262 L16.4703711,25.8243262 L9.17717773,18.5312012 C8.60767578,17.9616992 8.60767578,17.0383008 9.17717773,16.4687988 C9.74667969,15.8992969 10.6700781,15.8992969 11.2395801,16.4687988 L11.2395801,16.4687988 L16.0416895,21.2709082 L16.0416895,1.45831055 C16.0416895,0.652900391 16.6945898,-3.64153152e-13 17.5,-3.64153152e-13 Z" id="Combined-Shape"></path>
                    </g>
                </g>
            </g>
        </g>
    </g>
</svg>