<?xml version="1.0" encoding="UTF-8"?>
<svg width="20px" height="20px" viewBox="0 0 20 20" version="1.1" xmlns="http://www.w3.org/2000/svg" xmlns:xlink="http://www.w3.org/1999/xlink">
    <!-- Generator: Sketch 62 (91390) - https://sketch.com -->
    <title>icon/16px/lighting</title>
    <desc>Created with Sketch.</desc>
    <g id="icon/16px/lighting" stroke="none" stroke-width="1" fill="none" fill-rule="evenodd">
        <g id="lightbulb-(2)" transform="translate(1.000000, 0.000000)" fill="#727479">
            <path d="M10.9482527,19.2688172 C10.5482191,19.6703629 10.016129,19.9129704 9.45077286,19.9517809 C8.78393815,19.999496 8.12768817,19.7649529 7.64196908,19.3056116 C7.63054434,19.2940188 7.61995966,19.280914 7.60752688,19.2688172 L7.60752688,19.2688172 Z M11.5769489,18.2365591 C11.5399866,18.4761587 11.4947917,18.7102896 11.4413643,18.9365591 L11.4413643,18.9365591 L7.11508735,18.9365591 C7.06199596,18.7106314 7.01780912,18.4765006 6.98269488,18.2365591 L6.98269488,18.2365591 Z M11.6994288,17.2043011 C11.6994288,17.2043011 11.6962366,17.8407269 11.6948925,17.9043011 L11.6948925,17.9043011 L6.88222447,17.9043011 L6.88222447,17.2043011 Z M9.28427419,3.44041241 C9.50268817,3.44069222 9.72093415,3.45312499 9.93800404,3.47765458 C12.1587702,3.74008735 14.000168,5.31972447 14.5974462,7.47479837 C15.1947245,9.6297043 14.4289314,11.9319557 12.6601142,13.2998992 C12.0577957,13.7558804 11.702621,15.4665658 11.6994288,16.2219422 L11.6994288,16.2219422 L11.6994288,16.483871 L6.88222447,16.483871 L6.88222447,16.2231183 C6.87701613,15.4647178 6.51932125,13.7518481 5.91431449,13.2945228 C4.62315187,12.2920027 3.84425402,10.7674731 3.78847445,9.13373656 C3.73269488,7.500168 4.40574598,5.92607527 5.62550404,4.83786963 C6.62936826,3.93413978 7.93346774,3.43615591 9.28427419,3.44041241 Z M2.56283604,12.7772177 C2.66935484,12.7148858 2.80124327,12.7142137 2.90826615,12.7757056 C3.01528899,12.8371976 3.0813172,12.9514449 3.08098244,13.0749328 C3.08064516,13.1984207 3.0142809,13.312164 2.90692206,13.3733199 L2.90692206,13.3733199 L1.71505376,14.061492 C1.60853497,14.1238239 1.47664649,14.124496 1.36962366,14.063004 C1.26260082,14.0015121 1.19657256,13.8872648 1.19690733,13.7637769 C1.19724465,13.640289 1.26360886,13.5265457 1.37096774,13.4653898 L1.37096774,13.4653898 Z M15.6732191,12.7757056 C15.7804099,12.7142137 15.9121304,12.7148858 16.0186492,12.7772177 L16.0186492,12.7772177 L17.2105175,13.4653898 C17.3738239,13.5611559 17.4290994,13.7704973 17.3345094,13.9343078 C17.2399194,14.0981183 17.030914,14.1549059 16.8664314,14.061492 L16.8664314,14.061492 L15.6745632,13.3733199 C15.5672043,13.312164 15.50084,13.1984207 15.5005037,13.0749328 C15.500336,12.9514449 15.5661962,12.8371976 15.6732191,12.7757056 Z M1.72093415,8.94623656 C1.91095432,8.94623656 2.06502017,9.10030241 2.06502017,9.29032258 C2.06502017,9.48034275 1.91095432,9.6344086 1.72093415,9.6344086 L1.72093415,9.6344086 L0.344590065,9.6344086 C0.154569892,9.6344086 0.000504034409,9.48034275 0.000504034409,9.29032258 C0.000504034409,9.10030241 0.154569892,8.94623656 0.344590065,8.94623656 L0.344590065,8.94623656 Z M18.2370632,8.94623656 C18.4270834,8.94623656 18.5811492,9.10030241 18.5811492,9.29032258 C18.5811492,9.48034275 18.4270834,9.6344086 18.2370632,9.6344086 L18.2370632,9.6344086 L16.8607191,9.6344086 C16.6706989,9.6344086 16.5166331,9.48034275 16.5166331,9.29032258 C16.5166331,9.10030241 16.6706989,8.94623656 16.8607191,8.94623656 L16.8607191,8.94623656 Z M11.1337366,4.49243953 C10.9581653,4.41952284 10.7568884,4.50268817 10.6839718,4.6782594 L10.6839718,4.6782594 C10.6127352,4.85433467 10.6955645,5.05393144 10.8697917,5.12684813 C12.2421035,5.6920363 13.2041331,6.9519489 13.3881049,8.42456318 C13.4107863,8.61323923 13.5819892,8.74798387 13.7708333,8.72530241 C13.9595094,8.70278899 14.094086,8.53141802 14.0715726,8.34274194 C13.8571909,6.62382391 12.7350471,5.15305781 11.1337366,4.49243953 Z M16.8669355,4.5191532 C17.03125,4.42573927 17.2402554,4.48252688 17.3348454,4.64633738 C17.4294355,4.81014787 17.37416,5.01948925 17.2110215,5.1152554 L17.2110215,5.1152554 L16.0189852,5.80342744 C15.9667338,5.83350133 15.9074261,5.84946237 15.8469422,5.84946237 C15.6911962,5.84946237 15.5549395,5.74479166 15.5146169,5.59442202 C15.4742944,5.44405243 15.5401546,5.28528224 15.6748992,5.20732525 L15.6748992,5.20732525 Z M1.24697583,4.64633738 C1.34156585,4.48252688 1.55057123,4.42573927 1.71505376,4.5191532 L1.71505376,4.5191532 L2.90692206,5.20732525 C3.07006047,5.3030914 3.12550404,5.51243277 3.03091398,5.67624327 C2.93632391,5.84005376 2.72731854,5.89684138 2.56283604,5.80342744 L2.56283604,5.80342744 L1.37096774,5.1152554 C1.20782929,5.01948925 1.15238576,4.81014787 1.24697583,4.64633738 Z M9.29082662,4.12903226 C9.10080645,4.12903226 8.9467406,4.28309811 8.9467406,4.47311828 C8.9467406,4.66313845 9.10080645,4.8172043 9.29082662,4.8172043 C9.45514112,4.8172043 9.61928766,4.8266129 9.78242606,4.84543011 L9.78242606,4.84543011 L9.8217406,4.84744624 C10.0033602,4.84811828 10.1530578,4.70581316 10.1631385,4.52436155 C10.1733871,4.34290994 10.0406586,4.18481183 9.86021505,4.16347445 C9.67120297,4.14129703 9.4810148,4.1297043 9.29082662,4.12903226 Z M4.64667338,1.24647178 C4.81048387,1.15188172 5.01999329,1.20732525 5.1155914,1.3704637 L5.1155914,1.3704637 L5.80376344,2.562332 C5.86626344,2.6688508 5.86676748,2.80073927 5.80527553,2.90776211 C5.74378361,3.01495295 5.6297043,3.08081316 5.50621639,3.08047844 C5.38272852,3.08030916 5.2688172,3.01377686 5.20782929,2.90641802 L5.20782929,2.90641802 L4.51965725,1.71454972 C4.42624327,1.55023523 4.48303092,1.34106185 4.64667338,1.24647178 Z M13.4658938,1.3704637 C13.561492,1.20732525 13.7710013,1.15188172 13.9348118,1.24647178 C14.0986223,1.34106185 14.1554099,1.55023523 14.061828,1.71454972 L14.061828,1.71454972 L13.3736559,2.90641802 C13.2787298,3.07106856 13.0682124,3.12752017 12.9037298,3.03242606 C12.7390793,2.937332 12.6827957,2.72698254 12.7777218,2.562332 L12.7777218,2.562332 Z M9.29082662,4.40536496e-13 C9.4808468,4.40536496e-13 9.63491265,0.154065849 9.63491265,0.344086022 L9.63491265,0.344086022 L9.63491265,1.72043011 C9.63491265,1.91045028 9.4808468,2.06451613 9.29082662,2.06451613 C9.10080645,2.06451613 8.9467406,1.91045028 8.9467406,1.72043011 L8.9467406,1.72043011 L8.9467406,0.344086022 C8.9467406,0.154065849 9.10080645,4.40536496e-13 9.29082662,4.40536496e-13 Z" id="Combined-Shape"></path>
        </g>
    </g>
</svg>