<?xml version="1.0" encoding="UTF-8"?>
<svg width="16px" height="16px" viewBox="0 0 16 16" version="1.1" xmlns="http://www.w3.org/2000/svg" xmlns:xlink="http://www.w3.org/1999/xlink">
    <!-- Generator: Sketch 61.2 (89653) - https://sketch.com -->
    <title>icon/16px/more</title>
    <desc>Created with Sketch.</desc>
    <g id="icon/16px/more" stroke="none" stroke-width="1" fill="none" fill-rule="evenodd">
        <path d="M3.5,7 C4.32842712,7 5,7.67157288 5,8.5 C5,9.32842712 4.32842712,10 3.5,10 C2.67157288,10 2,9.32842712 2,8.5 C2,7.67157288 2.67157288,7 3.5,7 Z M8,7 C8.82842712,7 9.5,7.67157288 9.5,8.5 C9.5,9.32842712 8.82842712,10 8,10 C7.17157288,10 6.5,9.32842712 6.5,8.5 C6.5,7.67157288 7.17157288,7 8,7 Z M12.5,7 C13.3284271,7 14,7.67157288 14,8.5 C14,9.32842712 13.3284271,10 12.5,10 C11.6715729,10 11,9.32842712 11,8.5 C11,7.67157288 11.6715729,7 12.5,7 Z" id="Combined-Shape" fill="#00349A"></path>
        <rect id="Rectangle" x="0" y="0" width="16" height="16" rx="1"></rect>
    </g>
</svg>