<?xml version="1.0" encoding="UTF-8"?>
<svg width="29px" height="30px" viewBox="0 0 29 30" version="1.1" xmlns="http://www.w3.org/2000/svg" xmlns:xlink="http://www.w3.org/1999/xlink">
    <!-- Generator: sketchtool 63.1 (101010) - https://sketch.com -->
    <title>198ABCA3-8FA9-4849-B47A-48B135798F50</title>
    <desc>Created with sketchtool.</desc>
    <g id="Demand-Response_DSO" stroke="none" stroke-width="1" fill="none" fill-rule="evenodd">
        <g id="3.0-Demand-Response-Events" transform="translate(-669.000000, -256.000000)" fill="#727479">
            <g id="Upcoming-DR-Events" transform="translate(32.000000, 184.000000)">
                <g id="icon/32px/empstates/no-events" transform="translate(635.000000, 71.000000)">
                    <path d="M10.576319,1 C11.350869,1 11.9141598,1.45769479 11.9141598,2.23224484 L11.9141598,2.23224484 L11.9141598,4.16855258 L20.3637232,4.16855258 L20.3637232,2.23224484 C20.3637232,1.45769479 20.9270139,1 21.7015639,1 L21.7015639,1 L23.7787112,1 C24.5532613,1 25.2926351,1.45769479 25.2925677,2.23224484 L25.2925677,2.23224484 L25.2925677,4.16861996 L27.5457981,4.16861996 C27.6055707,4.16693528 27.6653433,4.1673396 27.7250484,4.16976555 C29.1626899,4.22866208 30.2804436,5.4418363 30.2215471,6.87947775 L30.2215471,6.87947775 L30.2215471,27.2287688 C30.2215471,28.7778689 29.0949656,30.2213056 27.5458655,30.2213056 L27.5458655,30.2213056 L4.73201741,30.2213056 C3.18291731,30.2213056 2.05633581,28.7778689 2.05633581,27.2287688 L2.05633581,27.2287688 L2.05633581,6.87947775 C2.05416681,6.81977257 2.05350555,6.75993261 2.05519023,6.70022743 C2.09528569,5.2619795 3.29376948,4.12845711 4.7320848,4.16855258 L4.7320848,4.16855258 L6.98524779,4.16855258 L6.98524779,2.23224484 C6.98524779,1.45769479 7.72462165,1 8.49910431,1 L8.49910431,1 Z M28.8132865,12.2660845 L3.46466377,12.2660845 L3.46466377,27.2287688 C3.46466377,28.0033188 3.95753475,28.8130451 4.7320848,28.8130451 L4.7320848,28.8130451 L27.5458655,28.8130451 C28.3204156,28.8130451 28.8132865,28.0033188 28.8132865,27.2287688 L28.8132865,27.2287688 L28.8132865,12.2660845 Z M15.4994888,13.757529 C15.664873,13.4011853 16.0756384,13.2522112 16.4170556,13.4247905 C16.5561466,13.4950574 16.6684185,13.612329 16.7357949,13.757529 L16.7357949,13.757529 L18.2811775,17.01993 L21.7153976,17.5577049 C21.9639998,17.6021021 22.1723734,17.7787986 22.2648597,18.023772 C22.3376261,18.2887825 22.2725505,18.5742417 22.0931651,18.7766021 L22.0931651,18.7766021 L19.5861746,21.2861044 L20.2043276,24.8711567 C20.2404808,25.1338341 20.1348479,25.3958252 19.9295637,25.5523475 C19.8119674,25.6478665 19.6665003,25.6985081 19.5174836,25.6957633 L19.5174836,25.6957633 L19.2084071,25.6240554 L16.1176418,23.9390911 L13.0268765,25.6240554 C12.6907838,25.8076139 12.2757457,25.6719521 12.0999099,25.3210981 C12.0306931,25.182966 12.0065033,25.0250027 12.030956,24.8712253 L12.030956,24.8712253 L12.649109,21.286173 L10.1421185,18.7766021 C9.96279888,18.5742417 9.89765748,18.2887825 9.97042391,18.023772 C10.0629102,17.7787986 10.2712838,17.6020335 10.519886,17.5577049 L10.519886,17.5577049 L13.9541061,17.01993 Z M16.1176418,15.6935052 L15.0187177,17.9879524 C14.9363542,18.1987531 14.7536165,18.3486191 14.5379466,18.3823116 L14.5379466,18.3823116 L12.0995155,18.7407825 L13.8509711,20.4974547 C14.0141203,20.666054 14.0906993,20.9056751 14.057044,21.1427572 L14.057044,21.1427572 L13.6449639,23.6881477 L15.8084995,22.4692506 L16.1175761,22.3975427 L16.4266526,22.4692506 L18.5901883,23.6881477 L18.1781082,21.1427572 C18.1445186,20.9056751 18.2210318,20.666054 18.3841811,20.4974547 L18.3841811,20.4974547 L20.1356366,18.7407825 L17.6973371,18.3823116 C17.4816671,18.3486191 17.2989951,18.1987531 17.216566,17.9879524 L17.216566,17.9879524 L16.1176418,15.6935052 Z M4.64032009,5.57461463 L4.54872385,5.57937386 C3.89034957,5.63901165 3.40495858,6.22110347 3.46459638,6.87947775 L3.46459638,6.87947775 L3.46459638,10.857824 L28.8132865,10.857824 L28.8132865,6.87947775 C28.8188123,6.8185596 28.8196209,6.75723712 28.8157799,6.69618419 C28.7742019,6.03639478 28.2056549,5.53523515 27.5458655,5.57681314 L27.5458655,5.57681314 L25.2926351,5.57681314 L25.2926351,6.35136319 C25.2926351,7.12591324 24.5533287,7.68920399 23.7787786,7.68920399 L23.7787786,7.68920399 L21.6302008,7.68920399 C20.9110431,7.6694595 20.3439787,7.07052085 20.3637232,6.35136319 L20.3637232,6.35136319 L20.3637232,5.57681314 L11.9141598,5.57681314 L11.9141598,6.35143058 C11.9148336,6.37521831 11.9148336,6.39900604 11.9141598,6.42279377 C11.8944153,7.14195142 11.2954766,7.70901586 10.576319,7.68927137 L10.576319,7.68927137 L8.49910431,7.68927137 C7.72455426,7.68927137 6.98524779,7.12598063 6.98524779,6.35143058 L6.98524779,6.35143058 L6.98524779,5.57688053 L4.73201741,5.57688053 C4.67096448,5.57303945 4.609642,5.5738481 4.54872385,5.57937386 Z M23.8843746,2.40826056 L21.7015639,2.40826056 L21.7015639,6.28094342 L23.8843746,6.28094342 L23.8843746,2.40826056 Z M10.5059666,2.40826056 L8.4991717,2.40826056 L8.4991717,6.28094342 L10.5059666,6.28094342 L10.5059666,2.40826056 Z" id="Combined-Shape"></path>
                </g>
            </g>
        </g>
    </g>
</svg>