<?xml version="1.0" encoding="UTF-8"?>
<svg width="32px" height="40px" viewBox="0 0 32 40" version="1.1" xmlns="http://www.w3.org/2000/svg" xmlns:xlink="http://www.w3.org/1999/xlink">
    <!-- Generator: Sketch 61.2 (89653) - https://sketch.com -->
    <title>icon/40px/pdf</title>
    <desc>Created with Sketch.</desc>
    <g id="Demand-Response_DSO" stroke="none" stroke-width="1" fill="none" fill-rule="evenodd">
        <g id="32" transform="translate(-736.000000, -416.000000)" fill-rule="nonzero">
            <g id="Popup" transform="translate(365.000000, 134.000000)">
                <g id="icon/40px/pdf" transform="translate(371.000000, 282.000000)">
                    <g id="pdf">
                        <path d="M22.1321429,0 L1.40214286,0 C0.825,0 0.357142857,0.467857143 0.357142857,1.37571429 L0.357142857,39.2857143 C0.357142857,39.5321429 0.825,40 1.40214286,40 L30.0264286,40 C30.6035714,40 31.0714286,39.5321429 31.0714286,39.2857143 L31.0714286,9.27 C31.0714286,8.77285714 31.005,8.61285714 30.8878571,8.495 L22.5764286,0.183571429 C22.4585714,0.0664285714 22.2985714,0 22.1321429,0 Z" id="Path" fill="#E9E9E0"></path>
                        <polygon id="Path" fill="#D9D7CA" points="22.5 0.107857143 22.5 8.57142857 30.9635714 8.57142857"></polygon>
                        <path d="M9.65285714,23.8028571 L9.65285714,23.8028571 C9.40428571,23.8028571 9.16571429,23.7221429 8.96214286,23.57 C8.21857143,23.0121429 8.11857143,22.3914286 8.16571429,21.9685714 C8.29571429,20.8057143 9.73357143,19.5885714 12.4407143,18.3485714 C13.515,15.9942857 14.5371429,13.0935714 15.1464286,10.67 C14.4335714,9.11857143 13.7407143,7.10571429 14.2457143,5.925 C14.4228571,5.51142857 14.6435714,5.19428571 15.0557143,5.05714286 C15.2185714,5.00285714 15.63,4.93428571 15.7814286,4.93428571 C16.1414286,4.93428571 16.4578571,5.39785714 16.6821429,5.68357143 C16.8928571,5.95214286 17.3707143,6.52142857 16.4157143,10.5421429 C17.3785714,12.5307143 18.7428571,14.5564286 20.05,15.9435714 C20.9864286,15.7742857 21.7921429,15.6878571 22.4485714,15.6878571 C23.5671429,15.6878571 24.245,15.9485714 24.5214286,16.4857143 C24.75,16.93 24.6564286,17.4492857 24.2428571,18.0285714 C23.845,18.585 23.2964286,18.8792857 22.6571429,18.8792857 C21.7885714,18.8792857 20.7771429,18.3307143 19.6492857,17.2471429 C17.6228571,17.6707143 15.2564286,18.4264286 13.3435714,19.2628571 C12.7464286,20.53 12.1742857,21.5507143 11.6414286,22.2992857 C10.9092857,23.3242857 10.2778571,23.8028571 9.65285714,23.8028571 Z M11.5542857,20.1414286 C10.0278571,20.9992857 9.40571429,21.7042857 9.36071429,22.1014286 C9.35357143,22.1671429 9.33428571,22.34 9.66857143,22.5957143 C9.775,22.5621429 10.3964286,22.2785714 11.5542857,20.1414286 Z M21.295,16.9685714 C21.8771429,17.4164286 22.0192857,17.6428571 22.4,17.6428571 C22.5671429,17.6428571 23.0435714,17.6357143 23.2642857,17.3278571 C23.3707143,17.1785714 23.4121429,17.0828571 23.4285714,17.0314286 C23.3407143,16.985 23.2242857,16.8907143 22.5892857,16.8907143 C22.2285714,16.8914286 21.775,16.9071429 21.295,16.9685714 Z M15.9592857,12.2671429 C15.4485714,14.0342857 14.7742857,15.9421429 14.0492857,17.67 C15.5421429,17.0907143 17.165,16.585 18.6892857,16.2271429 C17.725,15.1071429 16.7614286,13.7085714 15.9592857,12.2671429 Z M15.5257143,6.22285714 C15.4557143,6.24642857 14.5757143,7.47785714 15.5942857,8.52 C16.2721429,7.00928571 15.5564286,6.21285714 15.5257143,6.22285714 Z" id="Shape" fill="#CC4B4C"></path>
                        <path d="M30.0264286,40 L1.40214286,40 C0.825,40 0.357142857,39.5321429 0.357142857,38.955 L0.357142857,27.8571429 L31.0714286,27.8571429 L31.0714286,38.955 C31.0714286,39.5321429 30.6035714,40 30.0264286,40 Z" id="Path" fill="#CC4B4C"></path>
                        <g id="Group" transform="translate(6.428571, 30.000000)" fill="#FFFFFF">
                            <path d="M1.70357143,7.85714286 L0.531428571,7.85714286 L0.531428571,0.66 L2.60142857,0.66 C2.90714286,0.66 3.21,0.708571429 3.50928571,0.806428571 C3.80857143,0.904285714 4.07714286,1.05071429 4.315,1.24571429 C4.55285714,1.44071429 4.745,1.67714286 4.89142857,1.95357143 C5.03785714,2.23 5.11142857,2.54071429 5.11142857,2.88642857 C5.11142857,3.25142857 5.04928571,3.58142857 4.92571429,3.87785714 C4.80214286,4.17428571 4.62928571,4.42357143 4.40785714,4.625 C4.18642857,4.82642857 3.91928571,4.98285714 3.60714286,5.09357143 C3.295,5.20428571 2.94928571,5.25928571 2.57214286,5.25928571 L1.70285714,5.25928571 L1.70285714,7.85714286 L1.70357143,7.85714286 Z M1.70357143,1.54857143 L1.70357143,4.4 L2.77785714,4.4 C2.92071429,4.4 3.06214286,4.37571429 3.20285714,4.32642857 C3.34285714,4.27785714 3.47142857,4.19785714 3.58857143,4.08714286 C3.70571429,3.97642857 3.8,3.82214286 3.87142857,3.62357143 C3.94285714,3.425 3.97857143,3.17928571 3.97857143,2.88642857 C3.97857143,2.76928571 3.96214286,2.63357143 3.93,2.48142857 C3.89714286,2.32857143 3.83071429,2.18214286 3.73,2.04214286 C3.62857143,1.90214286 3.48714286,1.785 3.305,1.69071429 C3.12285714,1.59642857 2.88142857,1.54928571 2.58214286,1.54928571 L1.70357143,1.54928571 L1.70357143,1.54857143 Z" id="Shape"></path>
                            <path d="M12.2992857,4.05857143 C12.2992857,4.65071429 12.2357143,5.15714286 12.1085714,5.57714286 C11.9814286,5.99714286 11.8207143,6.34857143 11.625,6.63214286 C11.4292857,6.91571429 11.21,7.13857143 10.9657143,7.30142857 C10.7214286,7.46428571 10.4857143,7.58571429 10.2578571,7.66785714 C10.03,7.74928571 9.82142857,7.80142857 9.63285714,7.82428571 C9.44428571,7.84571429 9.30428571,7.85714286 9.21285714,7.85714286 L6.48857143,7.85714286 L6.48857143,0.66 L8.65642857,0.66 C9.26214286,0.66 9.79428571,0.756428571 10.2528571,0.947857143 C10.7114286,1.13928571 11.0928571,1.39571429 11.3957143,1.71428571 C11.6985714,2.03285714 11.9242857,2.39642857 12.0742857,2.80285714 C12.2242857,3.21 12.2992857,3.62857143 12.2992857,4.05857143 Z M8.82285714,6.99785714 C9.61714286,6.99785714 10.19,6.74428571 10.5414286,6.23642857 C10.8928571,5.72857143 11.0685714,4.99285714 11.0685714,4.02928571 C11.0685714,3.73 11.0328571,3.43357143 10.9614286,3.14071429 C10.8892857,2.84785714 10.7514286,2.58285714 10.5464286,2.345 C10.3414286,2.10714286 10.0628571,1.915 9.71142857,1.76857143 C9.36,1.62214286 8.90428571,1.54857143 8.34428571,1.54857143 L7.66071429,1.54857143 L7.66071429,6.99785714 L8.82285714,6.99785714 L8.82285714,6.99785714 Z" id="Shape"></path>
                            <polygon id="Path" points="15.19 1.54857143 15.19 3.81428571 18.1978571 3.81428571 18.1978571 4.615 15.19 4.615 15.19 7.85714286 13.9985714 7.85714286 13.9985714 0.66 18.5 0.66 18.5 1.54857143"></polygon>
                        </g>
                    </g>
                </g>
            </g>
        </g>
    </g>
</svg>