<?xml version="1.0" encoding="UTF-8"?>
<svg width="32px" height="40px" viewBox="0 0 32 40" version="1.1" xmlns="http://www.w3.org/2000/svg" xmlns:xlink="http://www.w3.org/1999/xlink">
    <!-- Generator: Sketch 61.2 (89653) - https://sketch.com -->
    <title>icon/40px/png</title>
    <desc>Created with Sketch.</desc>
    <g id="Demand-Response_DSO" stroke="none" stroke-width="1" fill="none" fill-rule="evenodd">
        <g id="32" transform="translate(-509.000000, -416.000000)" fill-rule="nonzero">
            <g id="Popup" transform="translate(365.000000, 134.000000)">
                <g id="icon/40px/png" transform="translate(144.000000, 282.000000)">
                    <g id="png">
                        <path d="M22.1321429,0 L1.40214286,0 C0.825,0 0.357142857,0.467857143 0.357142857,1.37571429 L0.357142857,39.2857143 C0.357142857,39.5321429 0.825,40 1.40214286,40 L30.0264286,40 C30.6035714,40 31.0714286,39.5321429 31.0714286,39.2857143 L31.0714286,9.27 C31.0714286,8.77285714 31.005,8.61285714 30.8878571,8.495 L22.5764286,0.183571429 C22.4585714,0.0664285714 22.2985714,0 22.1321429,0 Z" id="Path" fill="#E9E9E0"></path>
                        <path d="M30.0264286,40 L1.40214286,40 C0.825,40 0.357142857,39.5321429 0.357142857,38.955 L0.357142857,27.8571429 L31.0714286,27.8571429 L31.0714286,38.955 C31.0714286,39.5321429 30.6035714,40 30.0264286,40 Z" id="Path" fill="#659C35"></path>
                        <polygon id="Path" fill="#D9D7CA" points="22.5 0.107857143 22.5 8.57142857 30.9635714 8.57142857"></polygon>
                        <g id="Group" transform="translate(6.428571, 30.000000)" fill="#FFFFFF">
                            <path d="M1.70357143,7.85714286 L0.531428571,7.85714286 L0.531428571,0.66 L2.60142857,0.66 C2.90714286,0.66 3.21,0.708571429 3.50928571,0.806428571 C3.80857143,0.904285714 4.07714286,1.05071429 4.315,1.24571429 C4.55285714,1.44071429 4.745,1.67714286 4.89142857,1.95357143 C5.03785714,2.23 5.11142857,2.54071429 5.11142857,2.88642857 C5.11142857,3.25142857 5.04928571,3.58142857 4.92571429,3.87785714 C4.80214286,4.17428571 4.62928571,4.42357143 4.40785714,4.625 C4.18642857,4.82642857 3.91928571,4.98285714 3.60714286,5.09357143 C3.295,5.20428571 2.94928571,5.25928571 2.57214286,5.25928571 L1.70285714,5.25928571 L1.70285714,7.85714286 L1.70357143,7.85714286 Z M1.70357143,1.54857143 L1.70357143,4.4 L2.77785714,4.4 C2.92071429,4.4 3.06214286,4.37571429 3.20285714,4.32642857 C3.34285714,4.27785714 3.47142857,4.19785714 3.58857143,4.08714286 C3.70571429,3.97642857 3.8,3.82214286 3.87142857,3.62357143 C3.94285714,3.425 3.97857143,3.17928571 3.97857143,2.88642857 C3.97857143,2.76928571 3.96214286,2.63357143 3.93,2.48142857 C3.89714286,2.32857143 3.83071429,2.18214286 3.73,2.04214286 C3.62857143,1.90214286 3.48714286,1.785 3.305,1.69071429 C3.12285714,1.59642857 2.88142857,1.54928571 2.58214286,1.54928571 L1.70357143,1.54928571 L1.70357143,1.54857143 Z" id="Shape"></path>
                            <polygon id="Path" points="11.6542857 0.66 11.6542857 7.85714286 10.4628571 7.85714286 7.64071429 2.89642857 7.64071429 7.85714286 6.44928571 7.85714286 6.44928571 0.66 7.64071429 0.66 10.4628571 5.62071429 10.4628571 0.66"></polygon>
                            <path d="M18.6857143,4.14642857 L18.6857143,6.92928571 C18.5357143,7.11857143 18.3685714,7.27214286 18.1828571,7.39285714 C17.9971429,7.51357143 17.8021429,7.61285714 17.5971429,7.69071429 C17.3921429,7.76857143 17.18,7.82428571 16.9621429,7.85714286 C16.7435714,7.89 16.5278571,7.90571429 16.3128571,7.90571429 C15.8828571,7.90571429 15.4878571,7.82785714 15.1264286,7.67142857 C14.765,7.515 14.4492857,7.28428571 14.1792857,6.97785714 C13.9092857,6.67142857 13.6971429,6.28785714 13.5442857,5.82571429 C13.3914286,5.36357143 13.315,4.82928571 13.315,4.22428571 C13.315,3.61928571 13.3914286,3.08642857 13.5442857,2.62785714 C13.6971429,2.16857143 13.9085714,1.78642857 14.1792857,1.48071429 C14.4492857,1.17428571 14.7664286,0.942142857 15.1314286,0.782142857 C15.4957143,0.622142857 15.89,0.542857143 16.3128571,0.542857143 C16.7035714,0.542857143 17.0678571,0.607857143 17.4064286,0.737857143 C17.745,0.868571429 18.0471429,1.06357143 18.3142857,1.32357143 L17.5035714,2.04642857 C17.3471429,1.85714286 17.1678571,1.72071429 16.9664286,1.63642857 C16.7642857,1.55214286 16.5564286,1.50928571 16.3414286,1.50928571 C16.1007143,1.50928571 15.8707143,1.55428571 15.6528571,1.64571429 C15.4342857,1.73714286 15.2392857,1.89142857 15.0671429,2.10928571 C14.8942857,2.32785714 14.7592857,2.60857143 14.6621429,2.95428571 C14.565,3.3 14.5121429,3.72214286 14.5057143,4.22357143 C14.5121429,4.71214286 14.5628571,5.135 14.6571429,5.49285714 C14.7514286,5.85071429 14.8814286,6.14357143 15.0478571,6.37142857 C15.2142857,6.59928571 15.4028571,6.76857143 15.6142857,6.87928571 C15.8257143,6.99 16.0485714,7.045 16.2835714,7.045 C16.355,7.045 16.4507143,7.04 16.5714286,7.03 C16.6914286,7.02 16.8121429,7.00428571 16.9328571,6.98142857 C17.0528571,6.95857143 17.1685714,6.92785714 17.2792857,6.88857143 C17.39,6.84928571 17.4714286,6.79428571 17.5235714,6.72285714 L17.5235714,4.94571429 L16.3028571,4.94571429 L16.3028571,4.145 L18.6857143,4.145 L18.6857143,4.14642857 Z" id="Path"></path>
                        </g>
                        <circle id="Oval" fill="#F3D55B" cx="9.23642857" cy="10.3078571" r="3.26357143"></circle>
                        <polygon id="Path" fill="#88C057" points="0.357142857 27.8571429 8.21428571 27.8571429 31.0714286 27.8571429 31.0714286 20 23.9285714 13.2142857 16.4285714 21.4285714 12.5121429 17.5121429"></polygon>
                    </g>
                </g>
            </g>
        </g>
    </g>
</svg>