<?xml version="1.0" encoding="UTF-8"?>
<svg width="20px" height="20px" viewBox="0 0 20 20" version="1.1" xmlns="http://www.w3.org/2000/svg" xmlns:xlink="http://www.w3.org/1999/xlink">
    <!-- Generator: Sketch 62 (91390) - https://sketch.com -->
    <title>icon/16px/pumps</title>
    <desc>Created with Sketch.</desc>
    <g id="icon/16px/pumps" stroke="none" stroke-width="1" fill="none" fill-rule="evenodd">
        <path d="M19.2631641,8.36219982e-13 C19.6694141,8.36219982e-13 20,0.330585938 20,0.736835938 L20,0.736835938 L20,1.57894531 C20,1.98519531 19.6694531,2.31578125 19.2631641,2.31578125 L19.2631641,2.31578125 L19.1578516,2.31578125 L19.1578516,4.21054688 L19.263125,4.21054688 C19.669375,4.21054688 20,4.54109375 20,4.94738281 L20,4.94738281 L20,15.0525781 C20,15.4588281 19.6694141,15.7894141 19.263125,15.7894141 L19.263125,15.7894141 L19.1578516,15.7894141 L19.1578516,17.6841406 L19.263125,17.6841406 C19.669375,17.6841406 20,18.0146875 20,18.4209766 L20,18.4209766 L20,19.2630859 C20,19.6693359 19.6694141,19.9999219 19.263125,19.9999219 L19.263125,19.9999219 L14.6315625,19.9999219 C14.2253125,19.9999219 13.8947266,19.669375 13.8947266,19.2630859 L13.8947266,19.2630859 L13.8947266,18.4209766 C13.8947266,18.0147266 14.2252734,17.6841406 14.6315625,17.6841406 L14.6315625,17.6841406 L14.7368359,17.6841406 L14.7368359,15.7894141 L14.4551563,15.7894141 C14.3366797,16.0381641 14.0828125,16.2104688 13.7894531,16.2104688 L13.7894531,16.2104688 L12.9473437,16.2104688 C12.5410938,16.2104688 12.2105078,15.8799219 12.2105078,15.4736328 L12.2105078,15.4736328 L12.2105078,15.3683594 L11.6841797,15.3683594 C11.2779297,15.3683594 10.9473437,15.0378125 10.9473437,14.6315234 L10.9473437,14.6315234 L10.9473437,14.2104688 C10.9473437,13.8042188 11.2778906,13.4736328 11.6841797,13.4736328 L11.6841797,13.4736328 L12.2105078,13.4736328 L12.2105078,12.8420703 L10.3157813,12.8420703 L10.3157813,13.3683984 C10.3157813,14.006875 9.79636719,14.5262891 9.15789063,14.5262891 L9.15789063,14.5262891 L1.15789063,14.5262891 C0.519414062,14.5262891 0,14.006875 0,13.3683984 L0,13.3683984 L0,6.6315625 C0,5.99308594 0.519414062,5.47367188 1.15789062,5.47363281 L1.15789062,5.47363281 L9.15789063,5.47363281 C9.79636719,5.47363281 10.3157813,5.99304688 10.3157813,6.63152344 L10.3157813,6.63152344 L10.3157813,7.15785156 L12.2105078,7.15785156 L12.2105078,6.52628906 L11.6841797,6.52628906 C11.2779297,6.52628906 10.9473437,6.19574219 10.9473437,5.78945313 L10.9473437,5.78945313 L10.9473437,5.36839844 C10.9473437,4.96214844 11.2778906,4.6315625 11.6841797,4.6315625 L11.6841797,4.6315625 L12.2105078,4.6315625 L12.2105078,4.52628906 C12.2105078,4.12003906 12.5410547,3.78945313 12.9473437,3.78945313 L12.9473437,3.78945313 L13.7894531,3.78945313 C14.0828125,3.78945313 14.3367187,3.96175781 14.4551562,4.21050781 L14.4551562,4.21050781 L14.7368359,4.21050781 L14.7368359,2.31578125 L14.6315625,2.31578125 C14.2253125,2.31578125 13.8947266,1.98523438 13.8947266,1.57894531 L13.8947266,1.57894531 L13.8947266,0.736835938 C13.8947266,0.330585938 14.2252734,8.36219982e-13 14.6315625,8.36219982e-13 L14.6315625,8.36219982e-13 Z M18.5262891,15.7894922 L15.3683984,15.7894922 L15.3683984,17.6842188 L18.5262891,17.6842188 L18.5262891,15.7894922 Z M13.7894922,4.42105469 L12.9473828,4.42105469 C12.8893359,4.42105469 12.8421094,4.46832031 12.8421094,4.52632813 L12.8421094,4.52632813 L12.8421094,15.4736719 C12.8421094,15.5317188 12.889375,15.5789453 12.9473828,15.5789453 L12.9473828,15.5789453 L13.7894922,15.5789453 C13.8475391,15.5789453 13.8947656,15.5316797 13.8947656,15.4736719 L13.8947656,15.4736719 L13.8947656,4.52632813 C13.8947656,4.46828125 13.8475,4.42105469 13.7894922,4.42105469 L13.7894922,4.42105469 Z M12.2105078,14.1052344 L11.6841797,14.1052344 C11.6261328,14.1052344 11.5789063,14.1525 11.5789063,14.2105078 L11.5789063,14.2105078 L11.5789063,14.6315625 C11.5789063,14.6896094 11.6261719,14.7368359 11.6841797,14.7368359 L11.6841797,14.7368359 L12.2105078,14.7368359 L12.2105078,14.1052344 Z M9.68421875,12.8421484 L1.31578125,12.8421484 L1.31578125,13.8947656 L9.15789063,13.8947656 C9.448125,13.8947656 9.68421875,13.6586719 9.68421875,13.3684375 L9.68421875,13.3684375 L9.68421875,12.8421484 Z M12.2105078,7.78949219 L10.3157812,7.78949219 L10.3157812,12.2105078 L12.2105078,12.2105078 L12.2105078,7.78949219 Z M9.68421875,11.073711 L1.31578125,11.073711 L1.31578125,12.1263282 L9.68421875,12.1263282 L9.68421875,11.073711 Z M9.15789063,6.10527344 L1.31578125,6.10527344 L1.31578125,7.15789063 L9.68421875,7.15789063 L9.68421875,6.63160156 C9.68421875,6.34136719 9.448125,6.10527344 9.15789063,6.10527344 L9.15789063,6.10527344 Z M12.2105078,5.263125 L11.6841797,5.263125 C11.6261328,5.263125 11.5789063,5.31039063 11.5789063,5.36839844 L11.5789063,5.36839844 L11.5789063,5.78945313 C11.5789063,5.8475 11.6261719,5.89472656 11.6841797,5.89472656 L11.6841797,5.89472656 L12.2105078,5.89472656 L12.2105078,5.263125 Z M18.5263281,2.31578125 L15.3684375,2.31578125 L15.3684375,4.21050781 L18.5263281,4.21050781 L18.5263281,2.31578125 Z" id="Combined-Shape" fill="#727479"></path>
    </g>
</svg>