<?xml version="1.0" encoding="UTF-8"?>
<svg width="12px" height="12px" viewBox="0 0 12 12" version="1.1" xmlns="http://www.w3.org/2000/svg" xmlns:xlink="http://www.w3.org/1999/xlink">
    <!-- Generator: Sketch 62 (91390) - https://sketch.com -->
    <title>Path</title>
    <desc>Created with Sketch.</desc>
    <g id="Demand-Response_DSO" stroke="none" stroke-width="1" fill="none" fill-rule="evenodd">
        <g id="74" transform="translate(-620.000000, -219.000000)" fill="#D0021B">
            <g id="Popup" transform="translate(308.000000, 39.000000)">
                <g id="Group-6" transform="translate(40.000000, 143.000000)">
                    <g id="cancel-(1)" transform="translate(272.000000, 37.000000)">
                        <path d="M7.32165854,6 L11.8082927,1.51317073 C11.9317073,1.38965854 11.9998049,1.22487805 12,1.04917073 C12,0.873365854 11.9319024,0.708390244 11.8082927,0.585073171 L11.415122,0.192 C11.2915122,0.068195122 11.1267317,0.000390243902 10.9508293,0.000390243902 C10.7752195,0.000390243902 10.610439,0.068195122 10.4868293,0.192 L6.00019512,4.67853659 L1.51336585,0.192 C1.38995122,0.068195122 1.22507317,0.000390243902 1.04926829,0.000390243902 C0.873658537,0.000390243902 0.708780488,0.068195122 0.585365854,0.192 L0.192,0.585073171 C-0.064,0.841073171 -0.064,1.25746341 0.192,1.51317073 L4.67873171,6 L0.192,10.4866341 C0.0684878049,10.6103415 0.000487804878,10.775122 0.000487804878,10.9508293 C0.000487804878,11.1265366 0.0684878049,11.2913171 0.192,11.4149268 L0.585268293,11.808 C0.708682927,11.9317073 0.873658537,11.9996098 1.04917073,11.9996098 C1.22497561,11.9996098 1.38985366,11.9317073 1.51326829,11.808 L6.00009756,7.32136585 L10.4867317,11.808 C10.6103415,11.9317073 10.775122,11.9996098 10.9507317,11.9996098 L10.9509268,11.9996098 C11.1266341,11.9996098 11.2914146,11.9317073 11.4150244,11.808 L11.8081951,11.4149268 C11.9316098,11.2914146 11.9997073,11.1265366 11.9997073,10.9508293 C11.9997073,10.775122 11.9316098,10.6103415 11.8081951,10.4867317 L7.32165854,6 Z" id="Path"></path>
                    </g>
                </g>
            </g>
        </g>
    </g>
</svg>