<?xml version="1.0" encoding="UTF-8"?>
<svg width="14px" height="12px" viewBox="0 0 14 12" version="1.1" xmlns="http://www.w3.org/2000/svg" xmlns:xlink="http://www.w3.org/1999/xlink">
    <!-- Generator: Sketch 61.2 (89653) - https://sketch.com -->
    <title>icon/16px/reports</title>
    <desc>Created with Sketch.</desc>
    <g id="Demand-Response_DSO" stroke="none" stroke-width="1" fill="none" fill-rule="evenodd" fill-opacity="0.8">
        <g id="2" transform="translate(-1145.000000, -19.000000)" fill="#FFFFFF">
            <g id="Navigation">
                <g id="Reports" transform="translate(1144.000000, 16.000000)">
                    <g id="icon/16px/reports" transform="translate(1.000000, 3.000000)">
                        <g id="graph">
                            <path d="M12.8139271,0.0209362477 C13.1343971,0.0209362477 13.4085064,0.134976321 13.636612,0.363081967 C13.8648197,0.591238616 13.9789872,0.865398907 13.9789872,1.18576685 L13.9789872,1.18576685 L13.9789872,10.0389945 C13.9789872,10.3594645 13.8648197,10.6336503 13.636714,10.8617559 C13.4085829,11.0898871 13.1343971,11.2039526 12.8141056,11.2039526 L12.8141056,11.2039526 L1.1649071,11.2039526 C0.844564663,11.2039526 0.570404372,11.0898871 0.342145719,10.8617559 C0.114014572,10.6336248 -5.32907052e-15,10.359439 -5.32907052e-15,10.0389945 L-5.32907052e-15,10.0389945 L-5.32907052e-15,1.18576685 C-5.32907052e-15,0.865398907 0.114014572,0.591238616 0.342145719,0.363081967 C0.570404372,0.13495082 0.844564663,0.0209362477 1.1649071,0.0209362477 L1.1649071,0.0209362477 Z M12.8141056,0.952918033 L1.1649071,0.952918033 C1.10186885,0.952918033 1.0472459,0.975970856 1.00111475,1.0219745 C0.954958106,1.06818215 0.931956284,1.1226776 0.931956284,1.18576685 L0.931956284,1.18576685 L0.931956284,10.0389945 C0.931956284,10.1021858 0.955034608,10.1566557 1.00111475,10.2028889 C1.0472204,10.248969 1.10184335,10.2719964 1.1649071,10.2719964 L1.1649071,10.2719964 L12.8139271,10.2719964 C12.8770419,10.2719964 12.9316648,10.248969 12.9778215,10.2028889 C13.0239271,10.1568087 13.0469545,10.1021858 13.0469545,10.0389945 L13.0469545,10.0389945 L13.0469545,1.18576685 C13.0469545,1.1226776 13.0239271,1.06818215 12.9778215,1.0219745 C12.9317413,0.975919854 12.8771184,0.952918033 12.8141056,0.952918033 L12.8141056,0.952918033 Z M2.85274863,6.54442623 C3.33599779,6.54442623 3.72774863,6.93617707 3.72774863,7.41942623 L3.72774863,8.46514208 C3.72774863,8.94839123 3.33599779,9.34014208 2.85274863,9.34014208 L2.73891257,9.34014208 C2.25566341,9.34014208 1.86391257,8.94839123 1.86391257,8.46514208 L1.86391257,7.41942623 C1.86391257,6.93617707 2.25566341,6.54442623 2.73891257,6.54442623 L2.85274863,6.54442623 Z M5.64846448,2.81662659 C6.13171364,2.81662659 6.52346448,3.20837744 6.52346448,3.69162659 L6.52346448,8.46511658 C6.52346448,8.94836573 6.13171364,9.34011658 5.64846448,9.34011658 L5.53473042,9.34011658 C5.05148126,9.34011658 4.65973042,8.94836573 4.65973042,8.46511658 L4.65973042,3.69162659 C4.65973042,3.20837744 5.05148126,2.81662659 5.53473042,2.81662659 L5.64846448,2.81662659 Z M8.44418033,4.68046266 C8.92742948,4.68046266 9.31918033,5.0722135 9.31918033,5.55546266 L9.31918033,8.46514208 C9.31918033,8.94839123 8.92742948,9.34014208 8.44418033,9.34014208 L8.33049727,9.34014208 C7.84724811,9.34014208 7.45549727,8.94839123 7.45549727,8.46514208 L7.45549727,5.55546266 C7.45549727,5.0722135 7.84724811,4.68046266 8.33049727,4.68046266 L8.44418033,4.68046266 Z M11.2401002,1.88469581 C11.7233493,1.88469581 12.1151002,2.27644665 12.1151002,2.75969581 L12.1151002,8.46514208 C12.1151002,8.94839123 11.7233493,9.34014208 11.2401002,9.34014208 L11.1262131,9.34014208 C10.642964,9.34014208 10.2512131,8.94839123 10.2512131,8.46514208 L10.2512131,2.75969581 C10.2512131,2.27644665 10.642964,1.88469581 11.1262131,1.88469581 L11.2401002,1.88469581 Z" id="Combined-Shape"></path>
                        </g>
                    </g>
                </g>
            </g>
        </g>
    </g>
</svg>