<?xml version="1.0" encoding="UTF-8"?>
<svg width="14px" height="14px" viewBox="0 0 14 14" version="1.1" xmlns="http://www.w3.org/2000/svg" xmlns:xlink="http://www.w3.org/1999/xlink">
    <!-- Generator: Sketch 61.2 (89653) - https://sketch.com -->
    <title>icon/16px/rupee</title>
    <desc>Created with Sketch.</desc>
    <g id="Demand-Response_DSO" stroke="none" stroke-width="1" fill="none" fill-rule="evenodd">
        <g id="16" transform="translate(-336.000000, -168.000000)" fill="#727479">
            <g id="Secondary-information" transform="translate(32.000000, 135.000000)">
                <g id="Price" transform="translate(303.000000, 31.000000)">
                    <g id="icon/16px/rupee" transform="translate(1.000000, 2.000000)">
                        <path d="M7,0 C10.859625,0 14,3.140375 14,7 C14,10.859625 10.859625,14 7,14 C3.140375,14 0,10.859625 0,7 C0,3.140375 3.140375,0 7,0 Z M9.1875,3.5 L4.8125,3.5 C4.571,3.5 4.375,3.696 4.375,3.9375 C4.375,4.179 4.571,4.375 4.8125,4.375 L6.5625,4.375 C7.132125,4.375 7.613375,4.741625 7.7945,5.25 L4.8125,5.25 C4.571,5.25 4.375,5.446 4.375,5.6875 C4.375,5.929 4.571,6.125 4.8125,6.125 L7.7945,6.125 C7.613375,6.633375 7.132125,7 6.5625,7 L4.8125,7 C4.755625,7 4.69875,7.011375 4.645375,7.03325 C4.538625,7.077875 4.452875,7.16275 4.40825,7.270375 C4.363625,7.377125 4.363625,7.497875 4.40825,7.604625 C4.430125,7.658875 4.4625,7.707 4.503625,7.74725 L8.00275,11.246375 C8.0885,11.332125 8.2005,11.375 8.3125,11.375 C8.4245,11.375 8.5365,11.332125 8.62225,11.24725 C8.792875,11.076625 8.792875,10.79925 8.62225,10.628625 L5.868625,7.875 L6.5625,7.875 C7.6195,7.875 8.502375,7.1225 8.705375,6.125 L9.1875,6.125 C9.429,6.125 9.625,5.929 9.625,5.6875 C9.625,5.446 9.429,5.25 9.1875,5.25 L8.705375,5.25 C8.63975,4.9245 8.4945,4.6305 8.301125,4.375 L9.1875,4.375 C9.429,4.375 9.625,4.179 9.625,3.9375 C9.625,3.696 9.429,3.5 9.1875,3.5 Z" id="Combined-Shape"></path>
                    </g>
                </g>
            </g>
        </g>
    </g>
</svg>