<?xml version="1.0" encoding="UTF-8"?>
<svg width="16px" height="16px" viewBox="0 0 16 16" version="1.1" xmlns="http://www.w3.org/2000/svg" xmlns:xlink="http://www.w3.org/1999/xlink">
    <!-- Generator: Sketch 62 (91390) - https://sketch.com -->
    <title>icon/16px/solar-power</title>
    <desc>Created with Sketch.</desc>
    <g id="icon/16px/solar-power" stroke="none" stroke-width="1" fill="none" fill-rule="evenodd">
        <path d="M9.81137623,8.26086957 L10.2488762,10.7204969 L8.41666667,10.7204969 L8.41666667,13.1801242 L10.2926254,13.1801242 C10.40507,13.1801242 10.5,13.2727517 10.5,13.3870135 L10.5,13.7931107 C10.5,13.9091264 10.4066612,14 10.2915219,14 L5.70847804,14 C5.59322275,14 5.5,13.9073725 5.5,13.7931107 L5.5,13.3870135 C5.5,13.2709978 5.59284473,13.1801242 5.7073745,13.1801242 L7.58333333,13.1801242 L7.58333333,10.7204969 L5.75112377,10.7204969 L6.18862377,8.26086957 L9.81137623,8.26086957 Z M14.2728548,8.26086957 L14.936534,9.73279053 C15.1466812,10.1988589 14.8127246,10.6521739 14.2622569,10.6521739 L10.9582448,10.6521739 L10.5,8.26086957 L14.2728548,8.26086957 Z M5.5,8.26086957 L5.04179294,10.6521739 L1.73805296,10.6521739 C1.18595421,10.6521739 0.853186085,10.2000024 1.06383142,9.73279053 L1.72745607,8.26086957 L5.5,8.26086957 Z M6,5.39130435 L5.61310608,7.30434783 L2,7.30434783 L2.91033863,5.39130435 L6,5.39130435 Z M9.17165361,5.39130435 L9.5,7.30434783 L6.5,7.30434783 L6.82834639,5.39130435 L9.17165361,5.39130435 Z M13.0896614,5.39130435 L14,7.30434783 L10.3868939,7.30434783 L10,5.39130435 L13.0896614,5.39130435 Z M6,3 L5.70890156,4.43478261 L3,4.43478261 L3.49952908,3.38838704 C3.60738837,3.16244716 3.88919628,3 4.17144717,3 L6,3 Z M9.18437793,3 L9.5,4.43478261 L7,4.43478261 L7.31562207,3 L9.18437793,3 Z M11.8285529,3 C12.1124211,3 12.3918344,3.16081922 12.5004709,3.38838704 L13,4.43478261 L10.2910984,4.43478261 L10,3 L11.8285529,3 Z" id="Combined-Shape" fill="#727479"></path>
    </g>
</svg>