<?xml version="1.0" encoding="UTF-8"?>
<svg width="70px" height="27px" viewBox="0 0 70 27" version="1.1" xmlns="http://www.w3.org/2000/svg" xmlns:xlink="http://www.w3.org/1999/xlink">
    <!-- Generator: Sketch 61.2 (89653) - https://sketch.com -->
    <title>Splash Screen_Icon</title>
    <desc>Created with Sketch.</desc>
    <g id="Demand-Response_DSO" stroke="none" stroke-width="1" fill="none" fill-rule="evenodd">
        <g id="2" transform="translate(-32.000000, -12.000000)">
            <g id="Navigation">
                <g id="icon/logo" transform="translate(32.000000, 12.000000)">
                    <g id="Splash-Screen_Icon">
                        <path d="M0.750700737,14.1760033 L4.26428975,14.1760033 L4.26428975,26.1771714 L0.750700737,26.1771714 L0.750700737,14.1760033 Z M5.64104312,14.1760033 L10.2535961,14.1760033 L12.0336082,21.4782147 L13.805881,14.1760033 L18.4029557,14.1760033 L18.4029557,26.1771714 L15.539458,26.1771714 L15.539458,17.0248481 L13.3183125,26.1771714 L10.7256863,26.1771714 L8.51227996,17.0248481 L8.51227996,26.1771714 L5.64104312,26.1771714 L5.64104312,14.1760033 Z M19.524316,14.1760033 L25.3519207,14.1760033 C26.621153,14.1760033 27.5717731,14.4952672 28.2038096,15.1338046 C28.835846,15.7723419 29.1518595,16.6810161 29.1518595,17.8598543 C29.1518595,19.0714381 28.8074693,20.0183148 28.1186786,20.7005128 C27.4298878,21.3827109 26.3786593,21.7238048 24.9649615,21.7238048 L23.0456442,21.7238048 L23.0456442,26.1771714 L19.524316,26.1771714 L19.524316,14.1760033 Z M23.0456442,19.2924631 L23.9046935,19.2924631 C24.5805855,19.2924631 25.0552506,19.1683049 25.3287031,18.9199848 C25.6021556,18.6716647 25.7388798,18.3537652 25.7388798,17.9662767 C25.7388798,17.5897034 25.6202135,17.2704395 25.3828774,17.0084754 C25.1455413,16.7465114 24.6992529,16.6155313 24.0439988,16.6155313 L23.0456442,16.6155313 L23.0456442,19.2924631 Z M35.5203858,24.1960781 L31.5269674,24.1960781 L30.9774854,26.1771714 L27.3942438,26.1771714 L31.6585335,14.1760033 L35.4816899,14.1760033 L39.7459796,26.1771714 L36.0776069,26.1771714 L35.5203858,24.1960781 Z M34.7851634,21.6010097 L33.5314158,17.2868108 L32.2854073,21.6010097 L34.7851634,21.6010097 Z M47.0354687,21.2735563 L50.1079243,22.2559166 C49.901545,23.1673332 49.5765026,23.9286548 49.1327872,24.5399042 C48.6890719,25.1511537 48.1383055,25.6123126 47.4804717,25.923395 C46.8226379,26.2344773 45.9855246,26.3900161 44.9691069,26.3900161 C43.7359909,26.3900161 42.7286173,26.2003679 41.946956,25.8210658 C41.1652946,25.4417636 40.4907026,24.774584 39.9231596,23.8195067 C39.3556167,22.8644294 39.0718495,21.6419489 39.0718495,20.1520283 C39.0718495,18.1654676 39.5710218,16.6387313 40.5693814,15.5717735 C41.567741,14.5048158 42.9801277,13.9713449 44.806584,13.9713449 C46.2357603,13.9713449 47.3592204,14.2769651 48.1769982,14.8882145 C48.9947759,15.499464 49.6022957,16.4381544 49.9995757,17.704314 L46.9039026,18.4328978 C46.7955535,18.0672397 46.6820466,17.7998221 46.5633785,17.6306369 C46.3673182,17.3468426 46.127406,17.1285425 45.8436345,16.9757301 C45.5598631,16.8229177 45.2425597,16.7465127 44.891715,16.7465127 C44.097155,16.7465127 43.4883453,17.0848779 43.0652679,17.7616183 C42.7453801,18.2637161 42.5854385,19.0523252 42.5854385,20.1274693 C42.5854385,21.4591199 42.7763365,22.3718872 43.1581381,22.8657986 C43.5399397,23.35971 44.0765176,23.606662 44.7678881,23.606662 C45.4386206,23.606662 45.945532,23.4074631 46.2886375,23.0090595 C46.631743,22.6106558 46.8806843,22.0321605 47.0354687,21.2735563 Z M49.9136235,14.1760033 L60.5704783,14.1760033 L60.5704783,17.1394568 L56.9949758,17.1394568 L56.9949758,26.1771714 L53.489126,26.1771714 L53.489126,17.1394568 L49.9136235,17.1394568 L49.9136235,14.1760033 Z" id="IMPACT" fill="#76C079" fill-rule="nonzero"></path>
                        <path d="M-2.4158453e-13,8.23545366 L3.33558781,8.0144226 C3.40782055,8.58746896 3.55486355,9.02406916 3.77672123,9.3242363 C4.13788491,9.80996131 4.65382527,10.0528202 5.32455781,10.0528202 C5.82502747,10.0528202 6.21069289,9.92866199 6.48156564,9.6803419 C6.7524384,9.43202181 6.88787274,9.14413855 6.88787274,8.81668349 C6.88787274,8.50560118 6.75888765,8.22726855 6.5009136,7.98167725 C6.24293955,7.73608596 5.64444873,7.5041421 4.70542318,7.28583872 C3.16789783,6.92018057 2.07152455,6.43446285 1.41627046,5.82867098 C0.75585689,5.22287911 0.425655057,4.45064251 0.425655057,3.51193799 C0.425655057,2.89523096 0.594625527,2.31264256 0.932571534,1.76415533 C1.27051754,1.2156681 1.7787188,0.784525402 2.45719056,0.4707143 C3.13566231,0.156903197 4.06564482,-7.90478794e-14 5.24716598,-7.90478794e-14 C6.69698015,-7.90478794e-14 7.80238238,0.285154507 8.56340583,0.855472075 C9.32442928,1.42578964 9.77716695,2.33309944 9.92163242,3.57742868 L6.61700134,3.78208707 C6.52929017,3.24178621 6.34484149,2.84884603 6.06364977,2.60325474 C5.78245805,2.35766344 5.39421293,2.23486963 4.89890275,2.23486963 C4.49130375,2.23486963 4.18431923,2.3262828 3.97793999,2.50911188 C3.77156075,2.69194095 3.66837267,2.91433418 3.66837267,3.17629823 C3.66837267,3.36731368 3.75350283,3.53922501 3.92376571,3.69203738 C4.0888691,3.85030732 4.48098378,3.99765989 5.1001215,4.1340995 C6.63248737,4.4833849 7.7301505,4.83675819 8.39314381,5.19422997 C9.05613712,5.55170174 9.53854136,5.99512382 9.840371,6.52450951 C10.1422006,7.05389519 10.2931132,7.64603422 10.2931132,8.30094434 C10.2931132,9.07046374 10.0918965,9.77993907 9.68945694,10.4293916 C9.28701742,11.0788442 8.72464242,11.5713838 8.00231507,11.9070252 C7.27998773,12.2426666 6.36935299,12.4104848 5.27038353,12.4104848 C3.34073762,12.4104848 2.00445207,12.0175447 1.26148681,11.2316525 C0.518521537,10.4457604 0.0980301397,9.44703739 -2.4158453e-13,8.23545366 Z M21.8391528,0.204658391 L21.8391528,7.35951574 C21.8391528,8.06900171 21.7346749,8.73891015 21.5257159,9.36926115 C21.316757,9.99961214 20.9891348,10.5508199 20.5428397,11.0229009 C20.0965446,11.494982 19.6283287,11.8265253 19.138178,12.0175407 C18.4571265,12.2849624 17.6393611,12.4186712 16.6848571,12.4186712 C16.1327926,12.4186712 15.5304322,12.3777399 14.8777579,12.2958761 C14.2250835,12.2140124 13.6794766,12.0516517 13.2409207,11.8087892 C12.8023648,11.5659267 12.4012212,11.2207396 12.0374778,10.7732177 C11.6737343,10.3256958 11.4247931,9.86453683 11.2906466,9.38972698 C11.0739484,8.62566517 10.9656009,7.94893486 10.9656009,7.35951574 L10.9656009,0.204658391 L15.52,0.204 L13.7086247,7.17678677 L16.0205822,6.75150767 L15.3425771,10.7471878 L19.0698323,5.2138945 L16.7317903,5.22346173 L19.116,0.204 L21.8391528,0.204658391 Z M22.4497271,8.23545366 L25.7853149,8.0144226 C25.8575477,8.58746896 26.0045907,9.02406916 26.2264483,9.3242363 C26.587612,9.80996131 27.1035524,10.0528202 27.7742849,10.0528202 C28.2747546,10.0528202 28.66042,9.92866199 28.9312928,9.6803419 C29.2021655,9.43202181 29.3375999,9.14413855 29.3375999,8.81668349 C29.3375999,8.50560118 29.2086148,8.22726855 28.9506407,7.98167725 C28.6926667,7.73608596 28.0941758,7.5041421 27.1551503,7.28583872 C25.6176249,6.92018057 24.5212517,6.43446285 23.8659976,5.82867098 C23.205584,5.22287911 22.8753822,4.45064251 22.8753822,3.51193799 C22.8753822,2.89523096 23.0443526,2.31264256 23.3822986,1.76415533 C23.7202446,1.2156681 24.2284459,0.784525402 24.9069177,0.4707143 C25.5853894,0.156903197 26.5153719,-7.90478794e-14 27.6968931,-7.90478794e-14 C29.1467073,-7.90478794e-14 30.2521095,0.285154507 31.0131329,0.855472075 C31.7741564,1.42578964 32.2268941,2.33309944 32.3713595,3.57742868 L29.0667285,3.78208707 C28.9790173,3.24178621 28.7945686,2.84884603 28.5133769,2.60325474 C28.2321852,2.35766344 27.84394,2.23486963 27.3486299,2.23486963 C26.9410309,2.23486963 26.6340463,2.3262828 26.4276671,2.50911188 C26.2212879,2.69194095 26.1180998,2.91433418 26.1180998,3.17629823 C26.1180998,3.36731368 26.2032299,3.53922501 26.3734928,3.69203738 C26.5385962,3.85030732 26.9307109,3.99765989 27.5498486,4.1340995 C29.0822145,4.4833849 30.1798776,4.83675819 30.8428709,5.19422997 C31.5058642,5.55170174 31.9882685,5.99512382 32.2900981,6.52450951 C32.5919278,7.05389519 32.7428403,7.64603422 32.7428403,8.30094434 C32.7428403,9.07046374 32.5416236,9.77993907 32.139184,10.4293916 C31.7367445,11.0788442 31.1743695,11.5713838 30.4520422,11.9070252 C29.7297148,12.2426666 28.8190801,12.4104848 27.7201106,12.4104848 C25.7904647,12.4104848 24.4541792,12.0175447 23.7112139,11.2316525 C22.9682486,10.4457604 22.5477572,9.44703739 22.4497271,8.23545366 Z M32.610453,0.204658391 L43.2673078,0.204658391 L43.2673078,3.16811189 L39.6918053,3.16811189 L39.6918053,12.2058264 L36.1859555,12.2058264 L36.1859555,3.16811189 L32.610453,3.16811189 L32.610453,0.204658391 Z M49.6590517,10.2247332 L45.6656333,10.2247332 L45.1161513,12.2058264 L41.5329097,12.2058264 L45.7971994,0.204658391 L49.6203558,0.204658391 L53.8846455,12.2058264 L50.2162728,12.2058264 L49.6590517,10.2247332 Z M48.9238293,7.62966482 L47.6700817,3.31546594 L46.4240732,7.62966482 L48.9238293,7.62966482 Z M54.0463472,0.204658391 L57.5599362,0.204658391 L57.5599362,12.2058264 L54.0463472,12.2058264 L54.0463472,0.204658391 Z M58.998603,0.204658391 L62.2722774,0.204658391 L66.5443063,6.8437766 L66.5443063,0.204658391 L69.8489374,0.204658391 L69.8489374,12.2058264 L66.5443063,12.2058264 L62.2954949,5.61582625 L62.2954949,12.2058264 L58.998603,12.2058264 L58.998603,0.204658391 Z" id="SUSTAIN" fill="#FFFFFF"></path>
                    </g>
                </g>
            </g>
        </g>
    </g>
</svg>