<?xml version="1.0" encoding="UTF-8"?>
<svg width="20px" height="20px" viewBox="0 0 20 20" version="1.1" xmlns="http://www.w3.org/2000/svg" xmlns:xlink="http://www.w3.org/1999/xlink">
    <!-- Generator: Sketch 62 (91390) - https://sketch.com -->
    <title>icon/16px/STP</title>
    <desc>Created with Sketch.</desc>
    <g id="icon/16px/STP" stroke="none" stroke-width="1" fill="none" fill-rule="evenodd">
        <g id="control-panel" fill="#727479">
            <path d="M19,0 C19.5522461,0 20,0.447753917 20,1 L20,1 L20,19 C20,19.5522461 19.5522461,20 19,20 L19,20 L1,20 C0.447753917,20 0,19.5522461 0,19 L0,19 L0,1 C0,0.447753917 0.447753917,0 1,0 L1,0 Z M19,0.666666667 L1,0.666666667 C0.815917958,0.666666667 0.666666667,0.815917958 0.666666667,1 L0.666666667,1 L0.666666667,19 C0.666666667,19.184082 0.815917958,19.3333333 1,19.3333333 L1,19.3333333 L19,19.3333333 C19.184082,19.3333333 19.3333333,19.184082 19.3333333,19 L19.3333333,19 L19.3333333,1 C19.3333333,0.815917958 19.184082,0.666666667 19,0.666666667 L19,0.666666667 Z M10.6666667,16 C10.8507487,16 11,16.1492513 11,16.3333333 L11,16.3333333 L11,17.6666667 C11,17.8507487 10.8507487,18 10.6666667,18 L10.6666667,18 L9.33333333,18 C9.14925129,18 9,17.8507487 9,17.6666667 L9,17.6666667 L9,16.3333333 C9,16.1492513 9.14925129,16 9.33333333,16 L9.33333333,16 Z M16.6666667,16 C16.8507487,16 17,16.1492513 17,16.3333333 L17,16.3333333 L17,17.6666667 C17,17.8507487 16.8507487,18 16.6666667,18 L16.6666667,18 L15.3333333,18 C15.1492513,18 15,17.8507487 15,17.6666667 L15,17.6666667 L15,16.3333333 C15,16.1492513 15.1492513,16 15.3333333,16 L15.3333333,16 Z M7,11.9999992 C7.60774742,11.999349 8.13916017,12.4099935 8.29182942,12.9982096 C8.44466146,13.5865885 8.18017579,14.203776 7.64892579,14.4988607 C7.117513,14.7941081 6.45377604,14.6925456 6.0349935,14.2519531 L6.0349935,14.2519531 L5.33333333,14.641276 L5.33333333,17.6666667 C5.33333333,17.8507487 5.18408204,17.9999992 5,17.9999992 L5,17.9999992 L3,17.9999992 C2.81591796,17.9999992 2.66666667,17.8507487 2.66666667,17.6666667 L2.66666667,17.6666667 L2.66666667,12.6666667 C2.66666667,12.4825846 2.81591796,12.3333333 3,12.3333333 L3,12.3333333 L5,12.3333333 C5.18408204,12.3333333 5.33333333,12.4825846 5.33333333,12.6666667 L5.33333333,12.6666667 L5.33333333,13.879069 L5.70996092,13.6699219 C5.60579425,13.270345 5.69254558,12.8450521 5.944987,12.5182292 C6.19742838,12.1914062 6.58707683,11.9999992 7,11.9999992 Z M4.66666667,13 L3.33333333,13 L3.33333333,17.3333333 L4.66666667,17.3333333 L4.66666667,15.0113932 L4.16162108,15.2913412 L3.83837892,14.7086588 L4.66666667,14.2490234 L4.66666667,13 Z M16.6666667,13.3333333 C16.8507487,13.3333333 17,13.4825846 17,13.6666667 L17,13.6666667 L17,15 C17,15.184082 16.8507487,15.3333333 16.6666667,15.3333333 L16.6666667,15.3333333 L15.3333333,15.3333333 C15.1492513,15.3333333 15,15.184082 15,15 L15,15 L15,13.6666667 C15,13.4825846 15.1492513,13.3333333 15.3333333,13.3333333 L15.3333333,13.3333333 Z M10.6666667,13.3333333 C10.8507487,13.3333333 11,13.4825846 11,13.6666667 L11,13.6666667 L11,15 C11,15.184082 10.8507487,15.3333333 10.6666667,15.3333333 L10.6666667,15.3333333 L9.33333333,15.3333333 C9.14925129,15.3333333 9,15.184082 9,15 L9,15 L9,13.6666667 C9,13.4825846 9.14925129,13.3333333 9.33333333,13.3333333 L9.33333333,13.3333333 Z M7,12.6666667 C6.63183592,12.6666667 6.33333333,12.9651692 6.33333333,13.3333333 C6.33333333,13.7014974 6.63183592,14 7,14 C7.36816408,14 7.66666667,13.7014974 7.66666667,13.3333333 C7.66666667,12.9651692 7.36816408,12.6666667 7,12.6666667 Z M10,6.33333333 C11.4720052,6.33496092 12.6650391,7.52799479 12.6666667,9 C12.6666667,10.472819 11.472819,11.6666667 10,11.6666667 C8.527181,11.6666667 7.33333333,10.472819 7.33333333,9 C7.33333333,7.527181 8.527181,6.33333333 10,6.33333333 Z M16,6.33333333 C17.4720052,6.33496092 18.6650391,7.52799479 18.6666667,9 C18.6666667,10.472819 17.472819,11.6666667 16,11.6666667 C14.527181,11.6666667 13.3333333,10.472819 13.3333333,9 C13.3333333,7.527181 14.527181,6.33333333 16,6.33333333 Z M4,6.33333333 C5.472819,6.33333333 6.66666667,7.527181 6.66666667,9 C6.66503908,10.4720052 5.47200521,11.6650391 4,11.6666667 C2.527181,11.6666667 1.33333333,10.472819 1.33333333,9 C1.33333333,7.527181 2.527181,6.33333333 4,6.33333333 Z M16.3333333,7.02994792 L16.3333333,7.66666667 L15.6666667,7.66666667 L15.6666667,7.02994792 C15.3697917,7.08007813 15.0882162,7.19694008 14.8429362,7.37174479 L14.8429362,7.37174479 L15.2926432,7.82161458 L14.8212891,8.29296875 L14.3717448,7.84293621 C14.1969401,8.08821617 14.0800781,8.36979167 14.0299479,8.66666667 L14.0299479,8.66666667 L14.6666667,8.66666667 L14.6666667,9.33333333 L14.0299479,9.33333333 C14.1933594,10.2944336 15.0250651,10.9982096 16,11 L16,11 C16.9749349,10.9982096 17.8066406,10.2944336 17.9700521,9.33333333 L17.9700521,9.33333333 L17.3333333,9.33333333 L17.3333333,8.66666667 L17.9700521,8.66666667 C17.9199219,8.36979167 17.8030599,8.08821617 17.6282552,7.84293621 L17.6282552,7.84293621 L17.1787109,8.29296875 L16.7073567,7.82161458 L17.1570638,7.37174479 C16.9117838,7.19694008 16.6302083,7.08007813 16.3333333,7.02994792 L16.3333333,7.02994792 Z M10.3333333,7.02994792 L10.3333333,7.66666667 L9.66666667,7.66666667 L9.66666667,7.02994792 C9.36979167,7.08007813 9.08821617,7.19694008 8.84293621,7.37174479 L8.84293621,7.37174479 L9.29264325,7.82161458 L8.82128908,8.29296875 L8.37174479,7.84293621 C8.19694008,8.08821617 8.08007812,8.36979167 8.02994792,8.66666667 L8.02994792,8.66666667 L8.66666667,8.66666667 L8.66666667,9.33333333 L8.02994792,9.33333333 C8.19335938,10.2944336 9.02506508,10.9982096 10,11 C10.9749349,10.9982096 11.8066406,10.2944336 11.9700521,9.33333333 L11.9700521,9.33333333 L11.3333333,9.33333333 L11.3333333,8.66666667 L11.9700521,8.66666667 C11.9199219,8.36979167 11.8030599,8.08821617 11.6282552,7.84293621 L11.6282552,7.84293621 L11.1787109,8.29296875 L10.7073568,7.82161458 L11.1570638,7.37174479 C10.9117838,7.19694008 10.6302083,7.08007813 10.3333333,7.02994792 L10.3333333,7.02994792 Z M4.33333333,7.02994792 L4.33333333,7.66666667 L3.66666667,7.66666667 L3.66666667,7.02994792 C3.42916667,7.07005208 3.20145835,7.15286457 2.99429168,7.27388541 L2.84293621,7.37174479 L3.29264325,7.82161458 L2.82128908,8.29296875 L2.37174479,7.84293621 C2.23190102,8.03916018 2.12914062,8.25861329 2.06796354,8.49054558 L2.02994792,8.66666667 L2.66666667,8.66666667 L2.66666667,9.33333333 L2.02994792,9.33333333 C2.19173175,10.2952474 3.02457683,10.9996745 4,10.9996745 C4.92123299,10.9996745 5.71528985,10.3713429 5.9369652,9.49119157 L5.97005208,9.33333333 L5.33333333,9.33333333 L5.33333333,8.66666667 L5.97005208,8.66666667 C5.92994792,8.42916667 5.84713543,8.20145835 5.72611459,7.99429168 L5.62825521,7.84293621 L5.17871092,8.29296875 L4.70735675,7.82161458 L5.15706379,7.37174479 C4.91178383,7.19694008 4.63020833,7.08007813 4.33333333,7.02994792 Z M10.3333333,8.66666667 L10.3333333,10.3333333 L9.66666667,10.3333333 L9.66666667,8.66666667 L10.3333333,8.66666667 Z M16.3333333,8.66666667 L16.3333333,10.3333333 L15.6666667,10.3333333 L15.6666667,8.66666667 L16.3333333,8.66666667 Z M4.33333333,8.66666667 L4.33333333,10.3333333 L3.66666667,10.3333333 L3.66666667,8.66666667 L4.33333333,8.66666667 Z M6.33333333,2 C6.51741537,2 6.66666667,2.14925129 6.66666667,2.33333333 L6.66666667,2.33333333 L6.66666667,5 C6.66666667,5.18408204 6.51741537,5.33333333 6.33333333,5.33333333 L6.33333333,5.33333333 L1.66666667,5.33333333 C1.48258462,5.33333333 1.33333333,5.18408204 1.33333333,5 L1.33333333,5 L1.33333333,2.33333333 C1.33333333,2.14925129 1.48258462,2 1.66666667,2 L1.66666667,2 Z M12.3333333,2 C12.5174154,2 12.6666667,2.14925129 12.6666667,2.33333333 L12.6666667,2.33333333 L12.6666667,5 C12.6666667,5.18408204 12.5174154,5.33333333 12.3333333,5.33333333 L12.3333333,5.33333333 L7.66666667,5.33333333 C7.48258463,5.33333333 7.33333333,5.18408204 7.33333333,5 L7.33333333,5 L7.33333333,2.33333333 C7.33333333,2.14925129 7.48258463,2 7.66666667,2 L7.66666667,2 Z M18.3333333,2 C18.5174154,2 18.6666667,2.14925129 18.6666667,2.33333333 L18.6666667,2.33333333 L18.6666667,5 C18.6666667,5.18408204 18.5174154,5.33333333 18.3333333,5.33333333 L18.3333333,5.33333333 L13.6666667,5.33333333 C13.4825846,5.33333333 13.3333333,5.18408204 13.3333333,5 L13.3333333,5 L13.3333333,2.33333333 C13.3333333,2.14925129 13.4825846,2 13.6666667,2 L13.6666667,2 Z" id="Combined-Shape"></path>
        </g>
    </g>
</svg>