<?xml version="1.0" encoding="UTF-8"?>
<svg width="16px" height="16px" viewBox="0 0 16 16" version="1.1" xmlns="http://www.w3.org/2000/svg" xmlns:xlink="http://www.w3.org/1999/xlink">
    <!-- Generator: Sketch 62 (91390) - https://sketch.com -->
    <title>icon/16px/time</title>
    <desc>Created with Sketch.</desc>
    <g id="Demand-Response_DSO" stroke="none" stroke-width="1" fill="none" fill-rule="evenodd">
        <g id="64" transform="translate(-843.000000, -159.000000)" fill="#727479" fill-rule="nonzero">
            <g id="Table" transform="translate(32.000000, 147.000000)">
                <g id="Headers" transform="translate(0.000000, 0.000000)">
                    <g id="icon/16px/time" transform="translate(811.000000, 12.000000)">
                        <path d="M8,5.68434189e-14 C12.4114441,5.68434189e-14 16,3.58855593 16,8 C16,12.4114441 12.4114441,16 8,16 C3.58855593,16 0,12.4114441 0,8 C0,3.58855593 3.58855593,5.68434189e-14 8,5.68434189e-14 Z M8,1.10344828 C4.19797359,1.10344828 1.10344828,4.19797359 1.10344828,8 C1.10344828,11.8020264 4.19797359,14.8965517 8,14.8965517 C11.8020264,14.8965517 14.8965517,11.8020264 14.8965517,8 C14.8965517,4.19797359 11.8020264,1.10344828 8,1.10344828 Z M8.05172414,5.79310345 C8.32786651,5.79310345 8.55172414,6.01696107 8.55172414,6.29310345 L8.55172414,11.9137931 C8.55172414,12.1899355 8.32786651,12.4137931 8.05172414,12.4137931 L7.94827586,12.4137931 C7.67213349,12.4137931 7.44827586,12.1899355 7.44827586,11.9137931 L7.44827586,6.29310345 C7.44827586,6.01696107 7.67213349,5.79310345 7.94827586,5.79310345 L8.05172414,5.79310345 Z M7.88965517,3.69655172 C8.25530577,3.69655172 8.55172414,3.9929701 8.55172414,4.35862069 C8.55172414,4.72427128 8.25530577,5.02068966 7.88965517,5.02068966 C7.52400458,5.02068966 7.22758621,4.72427128 7.22758621,4.35862069 C7.22758621,3.9929701 7.52400458,3.69655172 7.88965517,3.69655172 Z" id="Combined-Shape"></path>
                    </g>
                </g>
            </g>
        </g>
    </g>
</svg>