<?xml version="1.0" encoding="UTF-8"?>
<svg width="14px" height="12px" viewBox="0 0 14 12" version="1.1" xmlns="http://www.w3.org/2000/svg" xmlns:xlink="http://www.w3.org/1999/xlink">
    <!-- Generator: Sketch 61.2 (89653) - https://sketch.com -->
    <title>icon/16px/users-group</title>
    <desc>Created with Sketch.</desc>
    <g id="Demand-Response_DSO" stroke="none" stroke-width="1" fill="none" fill-rule="evenodd" fill-opacity="0.8">
        <g id="2" transform="translate(-1021.000000, -19.000000)" fill="#FFFFFF">
            <g id="Navigation">
                <g id="Customers" transform="translate(1020.000000, 16.000000)">
                    <g id="icon/16px/users-group" transform="translate(1.000000, 3.000000)">
                        <path d="M8.44841285,2.05970987 C9.09573371,2.47316469 9.54966909,3.17247378 9.63269221,3.98458532 C9.89645275,4.11013791 10.1895633,4.1825759 10.5000892,4.1825759 C11.6341331,4.1825759 12.5533222,3.24626607 12.5533222,2.09125492 C12.5533222,0.936111646 11.6341331,0 10.5000892,0 C9.3764232,0 8.46547151,0.919529852 8.44841285,2.05970987 Z M7.10321135,6.34177654 C8.23706065,6.34177654 9.15631464,5.40520246 9.15631464,4.25052162 C9.15631464,3.09567563 8.23706065,2.1592667 7.10321135,2.1592667 C5.96926477,2.1592667 5.0496216,3.0956426 5.0496216,4.25052162 C5.0496216,5.40520246 5.96926477,6.34177654 7.10321135,6.34177654 Z M7.97417573,6.48410911 L6.23208482,6.48410911 C4.78252067,6.48410911 3.6029438,7.68543037 3.6029438,9.16203584 L3.6029438,11.332302 L3.60848948,11.3662914 L3.75514204,11.4127336 C5.13857957,11.8528118 6.3404689,12 7.32980609,12 C9.26174752,12 10.3820083,11.4388945 10.4510212,11.4029893 L10.5882364,11.332269 L10.6027979,11.332269 L10.6027979,9.16200281 C10.6027979,7.68543037 9.42393447,6.48410911 7.97417573,6.48410911 Z M11.3715076,4.32530485 L9.64248634,4.32530485 C9.62370884,5.02993201 9.32845789,5.6644664 8.86151772,6.12056484 C10.1500624,6.51083157 11.0928288,7.72777671 11.0928288,9.16533899 L11.0928288,9.83406094 C12.7996349,9.77004597 13.783394,9.27761293 13.8481909,9.24441631 L13.9854385,9.1733326 L14,9.1733326 L14,7.00267004 C14.0001946,5.52646095 12.820715,4.32530485 11.3715076,4.32530485 Z M3.50049457,4.18260894 C3.90218376,4.18260894 4.27569049,4.0631011 4.59244314,3.85966033 C4.69317353,3.19107049 5.04511371,2.60671089 5.54766301,2.20891299 C5.54977101,2.16967161 5.55330598,2.13092571 5.55330598,2.09128795 C5.55330598,0.936144678 4.6338574,3.30314625e-05 3.50049457,3.30314625e-05 C2.36615881,3.30314625e-05 1.4470994,0.936111646 1.4470994,2.09128795 C1.4470994,3.24649729 2.36612638,4.18260894 3.50049457,4.18260894 Z M5.34445096,6.12056484 C4.87968366,5.66664648 4.58543806,5.03558039 4.56377422,4.33504913 C4.4998529,4.33019351 4.43638562,4.32530485 4.37103735,4.32530485 L2.62914102,4.32530485 C1.17938228,4.32530485 0,5.52646095 0,7.00286823 L0,9.1733326 L0.0053835302,9.20712379 L0.152230667,9.25376421 C1.26182164,9.60716783 2.25248849,9.76958353 3.11291283,9.82035289 L3.11291283,9.16510777 C3.11307498,7.72777671 4.05561437,6.51063338 5.34445096,6.12056484 Z" id="Shape"></path>
                    </g>
                </g>
            </g>
        </g>
    </g>
</svg>