<?xml version="1.0" encoding="UTF-8"?>
<svg width="20px" height="20px" viewBox="0 0 20 20" version="1.1" xmlns="http://www.w3.org/2000/svg" xmlns:xlink="http://www.w3.org/1999/xlink">
    <!-- Generator: Sketch 62 (91390) - https://sketch.com -->
    <title>icon/16px/wind generator</title>
    <desc>Created with Sketch.</desc>
    <g id="icon/16px/wind-generator" stroke="none" stroke-width="1" fill="none" fill-rule="evenodd">
        <g id="wind" transform="translate(2.000000, 0.000000)" fill="#727479">
            <path d="M10.0630143,18.8548097 L10.176183,19.8553241 L6.555427,19.8553241 L6.66795259,18.8548097 L10.0630143,18.8548097 Z M7.95781893,8.15136313 C8.40406387,7.92566881 8.94933136,8.10378091 9.17566881,8.55002568 C9.40264922,8.99627062 9.22453695,9.54153811 8.77764922,9.76787556 L8.77764922,9.76787556 L9.99357004,18.2478138 L6.73996905,18.2478138 L7.95781893,9.76787556 C7.78613679,9.680427 7.6472479,9.54153811 7.55915638,9.36985597 C7.33346189,8.92361119 7.51157399,8.3783437 7.95781893,8.15136313 Z M9.70807605,8.8310186 C10.9728652,9.11844132 14.6984311,10.1363169 16.56893,12.5520833 L16.56893,12.5520833 L16.555427,12.5848765 C13.5133745,12.8350051 10.2417695,10.78125 9.17566881,10.0424382 C9.5126028,9.78652263 9.7100051,9.38721712 9.70807605,8.96412033 C9.71064823,8.91975309 9.71064823,8.87538584 9.70807605,8.8310186 Z M7.031893,8.78600823 C6.9618056,9.25154321 7.14506173,9.71965021 7.51093103,10.0160751 C6.41460905,10.7002314 3.05877053,12.6150978 0.0231481481,12.2440843 L0.0231481481,12.2440843 L0.0102880658,12.2112912 C1.99074074,9.87847226 5.75617284,9.01813267 7.031893,8.78600823 Z M8.38220165,-3.48165941e-13 C9.84567901,2.69611621 9.27147638,6.51684675 9.02520576,7.78935177 C8.82458848,7.67554008 8.59760807,7.61574074 8.36612658,7.61574074 C8.13335901,7.61574074 7.90573564,7.67554008 7.70383226,7.78935177 C7.45820477,6.51298864 6.89171819,2.69161514 8.34747951,-3.48165941e-13 L8.34747951,-3.48165941e-13 Z" id="Combined-Shape"></path>
        </g>
    </g>
</svg>